<mxfile host="app.diagrams.net" agent="Mozilla/5.0 (Windows NT 10.0; Win64; x64; rv:135.0) Gecko/20100101 Firefox/135.0" version="26.0.14">
  <diagram name="Page-1" id="1n_7zyRKJ9IG0-Ofg2X5">
    <mxGraphModel dx="875" dy="1691" grid="1" gridSize="10" guides="1" tooltips="1" connect="1" arrows="1" fold="1" page="1" pageScale="1" pageWidth="827" pageHeight="1169" math="0" shadow="0">
      <root>
        <mxCell id="0" />
        <mxCell id="1" parent="0" />
        <mxCell id="L24kRfQmKUiIfzlVppwo-2" value="" style="group" vertex="1" connectable="0" parent="1">
          <mxGeometry x="720" y="40" width="320" height="40" as="geometry" />
        </mxCell>
        <mxCell id="L24kRfQmKUiIfzlVppwo-3" value="81" style="rounded=0;whiteSpace=wrap;html=1;" vertex="1" parent="L24kRfQmKUiIfzlVppwo-2">
          <mxGeometry width="40" height="40" as="geometry" />
        </mxCell>
        <mxCell id="L24kRfQmKUiIfzlVppwo-4" value="" style="rounded=0;whiteSpace=wrap;html=1;fillColor=light-dark(#FFFFFF,#FFFFFF);" vertex="1" parent="L24kRfQmKUiIfzlVppwo-2">
          <mxGeometry x="40" width="40" height="40" as="geometry" />
        </mxCell>
        <mxCell id="L24kRfQmKUiIfzlVppwo-5" value="83" style="rounded=0;whiteSpace=wrap;html=1;" vertex="1" parent="L24kRfQmKUiIfzlVppwo-2">
          <mxGeometry x="80" width="40" height="40" as="geometry" />
        </mxCell>
        <mxCell id="L24kRfQmKUiIfzlVppwo-6" value="" style="rounded=0;whiteSpace=wrap;html=1;fillColor=light-dark(#FFFFFF,#FFFFFF);" vertex="1" parent="L24kRfQmKUiIfzlVppwo-2">
          <mxGeometry x="120" width="40" height="40" as="geometry" />
        </mxCell>
        <mxCell id="L24kRfQmKUiIfzlVppwo-7" value="85" style="rounded=0;whiteSpace=wrap;html=1;" vertex="1" parent="L24kRfQmKUiIfzlVppwo-2">
          <mxGeometry x="160" width="40" height="40" as="geometry" />
        </mxCell>
        <mxCell id="L24kRfQmKUiIfzlVppwo-8" value="" style="rounded=0;whiteSpace=wrap;html=1;fillColor=light-dark(#FFFFFF,#FFFFFF);" vertex="1" parent="L24kRfQmKUiIfzlVppwo-2">
          <mxGeometry x="200" width="40" height="40" as="geometry" />
        </mxCell>
        <mxCell id="L24kRfQmKUiIfzlVppwo-9" value="87" style="rounded=0;whiteSpace=wrap;html=1;" vertex="1" parent="L24kRfQmKUiIfzlVppwo-2">
          <mxGeometry x="240" width="40" height="40" as="geometry" />
        </mxCell>
        <mxCell id="L24kRfQmKUiIfzlVppwo-10" value="" style="rounded=0;whiteSpace=wrap;html=1;fillColor=light-dark(#FFFFFF,#FFFFFF);" vertex="1" parent="L24kRfQmKUiIfzlVppwo-2">
          <mxGeometry x="280" width="40" height="40" as="geometry" />
        </mxCell>
        <mxCell id="L24kRfQmKUiIfzlVppwo-153" value="2" style="group" vertex="1" connectable="0" parent="L24kRfQmKUiIfzlVppwo-2">
          <mxGeometry width="320" height="40" as="geometry" />
        </mxCell>
        <mxCell id="L24kRfQmKUiIfzlVppwo-154" value="21" style="rounded=0;whiteSpace=wrap;html=1;" vertex="1" parent="L24kRfQmKUiIfzlVppwo-153">
          <mxGeometry width="40" height="40" as="geometry" />
        </mxCell>
        <mxCell id="L24kRfQmKUiIfzlVppwo-155" value="&lt;span style=&quot;color: light-dark(rgb(0, 0, 0), rgb(0, 0, 0));&quot;&gt;22&lt;/span&gt;" style="rounded=0;whiteSpace=wrap;html=1;fillColor=light-dark(#FFFFFF,#FFFFFF);" vertex="1" parent="L24kRfQmKUiIfzlVppwo-153">
          <mxGeometry x="40" width="40" height="40" as="geometry" />
        </mxCell>
        <mxCell id="L24kRfQmKUiIfzlVppwo-156" value="23" style="rounded=0;whiteSpace=wrap;html=1;" vertex="1" parent="L24kRfQmKUiIfzlVppwo-153">
          <mxGeometry x="80" width="40" height="40" as="geometry" />
        </mxCell>
        <mxCell id="L24kRfQmKUiIfzlVppwo-157" value="&lt;span style=&quot;color: light-dark(rgb(0, 0, 0), rgb(0, 0, 0));&quot;&gt;24&lt;/span&gt;" style="rounded=0;whiteSpace=wrap;html=1;fillColor=light-dark(#FFFFFF,#FFFFFF);" vertex="1" parent="L24kRfQmKUiIfzlVppwo-153">
          <mxGeometry x="120" width="40" height="40" as="geometry" />
        </mxCell>
        <mxCell id="L24kRfQmKUiIfzlVppwo-158" value="25" style="rounded=0;whiteSpace=wrap;html=1;" vertex="1" parent="L24kRfQmKUiIfzlVppwo-153">
          <mxGeometry x="160" width="40" height="40" as="geometry" />
        </mxCell>
        <mxCell id="L24kRfQmKUiIfzlVppwo-159" value="&lt;span style=&quot;color: light-dark(rgb(0, 0, 0), rgb(0, 0, 0));&quot;&gt;26&lt;/span&gt;" style="rounded=0;whiteSpace=wrap;html=1;fillColor=light-dark(#FFFFFF,#FFFFFF);" vertex="1" parent="L24kRfQmKUiIfzlVppwo-153">
          <mxGeometry x="200" width="40" height="40" as="geometry" />
        </mxCell>
        <mxCell id="L24kRfQmKUiIfzlVppwo-160" value="27" style="rounded=0;whiteSpace=wrap;html=1;" vertex="1" parent="L24kRfQmKUiIfzlVppwo-153">
          <mxGeometry x="240" width="40" height="40" as="geometry" />
        </mxCell>
        <mxCell id="L24kRfQmKUiIfzlVppwo-161" value="&lt;span style=&quot;color: light-dark(rgb(0, 0, 0), rgb(0, 0, 0));&quot;&gt;28&lt;/span&gt;" style="rounded=0;whiteSpace=wrap;html=1;fillColor=light-dark(#FFFFFF,#FFFFFF);" vertex="1" parent="L24kRfQmKUiIfzlVppwo-153">
          <mxGeometry x="280" width="40" height="40" as="geometry" />
        </mxCell>
        <mxCell id="L24kRfQmKUiIfzlVppwo-11" value="" style="group" vertex="1" connectable="0" parent="1">
          <mxGeometry x="720" y="120" width="320" height="40" as="geometry" />
        </mxCell>
        <mxCell id="L24kRfQmKUiIfzlVppwo-12" value="61" style="rounded=0;whiteSpace=wrap;html=1;" vertex="1" parent="L24kRfQmKUiIfzlVppwo-11">
          <mxGeometry width="40" height="40" as="geometry" />
        </mxCell>
        <mxCell id="L24kRfQmKUiIfzlVppwo-13" value="" style="rounded=0;whiteSpace=wrap;html=1;fillColor=light-dark(#FFFFFF,#FFFFFF);" vertex="1" parent="L24kRfQmKUiIfzlVppwo-11">
          <mxGeometry x="40" width="40" height="40" as="geometry" />
        </mxCell>
        <mxCell id="L24kRfQmKUiIfzlVppwo-14" value="63" style="rounded=0;whiteSpace=wrap;html=1;" vertex="1" parent="L24kRfQmKUiIfzlVppwo-11">
          <mxGeometry x="80" width="40" height="40" as="geometry" />
        </mxCell>
        <mxCell id="L24kRfQmKUiIfzlVppwo-15" value="" style="rounded=0;whiteSpace=wrap;html=1;fillColor=light-dark(#FFFFFF,#FFFFFF);" vertex="1" parent="L24kRfQmKUiIfzlVppwo-11">
          <mxGeometry x="120" width="40" height="40" as="geometry" />
        </mxCell>
        <mxCell id="L24kRfQmKUiIfzlVppwo-16" value="65" style="rounded=0;whiteSpace=wrap;html=1;" vertex="1" parent="L24kRfQmKUiIfzlVppwo-11">
          <mxGeometry x="160" width="40" height="40" as="geometry" />
        </mxCell>
        <mxCell id="L24kRfQmKUiIfzlVppwo-17" value="" style="rounded=0;whiteSpace=wrap;html=1;fillColor=light-dark(#FFFFFF,#FFFFFF);" vertex="1" parent="L24kRfQmKUiIfzlVppwo-11">
          <mxGeometry x="200" width="40" height="40" as="geometry" />
        </mxCell>
        <mxCell id="L24kRfQmKUiIfzlVppwo-18" value="67" style="rounded=0;whiteSpace=wrap;html=1;" vertex="1" parent="L24kRfQmKUiIfzlVppwo-11">
          <mxGeometry x="240" width="40" height="40" as="geometry" />
        </mxCell>
        <mxCell id="L24kRfQmKUiIfzlVppwo-19" value="" style="rounded=0;whiteSpace=wrap;html=1;fillColor=light-dark(#FFFFFF,#FFFFFF);" vertex="1" parent="L24kRfQmKUiIfzlVppwo-11">
          <mxGeometry x="280" width="40" height="40" as="geometry" />
        </mxCell>
        <mxCell id="L24kRfQmKUiIfzlVppwo-20" value="4" style="group;direction=east;" vertex="1" connectable="0" parent="1">
          <mxGeometry x="720" y="200" width="320" height="40" as="geometry" />
        </mxCell>
        <mxCell id="L24kRfQmKUiIfzlVppwo-21" value="41" style="rounded=0;whiteSpace=wrap;html=1;" vertex="1" parent="L24kRfQmKUiIfzlVppwo-20">
          <mxGeometry width="40" height="40" as="geometry" />
        </mxCell>
        <mxCell id="L24kRfQmKUiIfzlVppwo-22" value="" style="rounded=0;whiteSpace=wrap;html=1;fillColor=light-dark(#FFFFFF,#FFFFFF);" vertex="1" parent="L24kRfQmKUiIfzlVppwo-20">
          <mxGeometry x="40" width="40" height="40" as="geometry" />
        </mxCell>
        <mxCell id="L24kRfQmKUiIfzlVppwo-23" value="43" style="rounded=0;whiteSpace=wrap;html=1;" vertex="1" parent="L24kRfQmKUiIfzlVppwo-20">
          <mxGeometry x="80" width="40" height="40" as="geometry" />
        </mxCell>
        <mxCell id="L24kRfQmKUiIfzlVppwo-24" value="" style="rounded=0;whiteSpace=wrap;html=1;fillColor=light-dark(#FFFFFF,#FFFFFF);" vertex="1" parent="L24kRfQmKUiIfzlVppwo-20">
          <mxGeometry x="120" width="40" height="40" as="geometry" />
        </mxCell>
        <mxCell id="L24kRfQmKUiIfzlVppwo-25" value="45" style="rounded=0;whiteSpace=wrap;html=1;" vertex="1" parent="L24kRfQmKUiIfzlVppwo-20">
          <mxGeometry x="160" width="40" height="40" as="geometry" />
        </mxCell>
        <mxCell id="L24kRfQmKUiIfzlVppwo-26" value="" style="rounded=0;whiteSpace=wrap;html=1;fillColor=light-dark(#FFFFFF,#FFFFFF);" vertex="1" parent="L24kRfQmKUiIfzlVppwo-20">
          <mxGeometry x="200" width="40" height="40" as="geometry" />
        </mxCell>
        <mxCell id="L24kRfQmKUiIfzlVppwo-27" value="47" style="rounded=0;whiteSpace=wrap;html=1;" vertex="1" parent="L24kRfQmKUiIfzlVppwo-20">
          <mxGeometry x="240" width="40" height="40" as="geometry" />
        </mxCell>
        <mxCell id="L24kRfQmKUiIfzlVppwo-28" value="" style="rounded=0;whiteSpace=wrap;html=1;fillColor=light-dark(#FFFFFF,#FFFFFF);" vertex="1" parent="L24kRfQmKUiIfzlVppwo-20">
          <mxGeometry x="280" width="40" height="40" as="geometry" />
        </mxCell>
        <mxCell id="L24kRfQmKUiIfzlVppwo-135" value="2" style="group" vertex="1" connectable="0" parent="L24kRfQmKUiIfzlVppwo-20">
          <mxGeometry width="320" height="40" as="geometry" />
        </mxCell>
        <mxCell id="L24kRfQmKUiIfzlVppwo-136" value="21" style="rounded=0;whiteSpace=wrap;html=1;" vertex="1" parent="L24kRfQmKUiIfzlVppwo-135">
          <mxGeometry width="40" height="40" as="geometry" />
        </mxCell>
        <mxCell id="L24kRfQmKUiIfzlVppwo-137" value="&lt;span style=&quot;color: light-dark(rgb(0, 0, 0), rgb(0, 0, 0));&quot;&gt;22&lt;/span&gt;" style="rounded=0;whiteSpace=wrap;html=1;fillColor=light-dark(#FFFFFF,#FFFFFF);" vertex="1" parent="L24kRfQmKUiIfzlVppwo-135">
          <mxGeometry x="40" width="40" height="40" as="geometry" />
        </mxCell>
        <mxCell id="L24kRfQmKUiIfzlVppwo-138" value="23" style="rounded=0;whiteSpace=wrap;html=1;" vertex="1" parent="L24kRfQmKUiIfzlVppwo-135">
          <mxGeometry x="80" width="40" height="40" as="geometry" />
        </mxCell>
        <mxCell id="L24kRfQmKUiIfzlVppwo-139" value="&lt;span style=&quot;color: light-dark(rgb(0, 0, 0), rgb(0, 0, 0));&quot;&gt;24&lt;/span&gt;" style="rounded=0;whiteSpace=wrap;html=1;fillColor=light-dark(#FFFFFF,#FFFFFF);" vertex="1" parent="L24kRfQmKUiIfzlVppwo-135">
          <mxGeometry x="120" width="40" height="40" as="geometry" />
        </mxCell>
        <mxCell id="L24kRfQmKUiIfzlVppwo-140" value="25" style="rounded=0;whiteSpace=wrap;html=1;" vertex="1" parent="L24kRfQmKUiIfzlVppwo-135">
          <mxGeometry x="160" width="40" height="40" as="geometry" />
        </mxCell>
        <mxCell id="L24kRfQmKUiIfzlVppwo-141" value="&lt;span style=&quot;color: light-dark(rgb(0, 0, 0), rgb(0, 0, 0));&quot;&gt;26&lt;/span&gt;" style="rounded=0;whiteSpace=wrap;html=1;fillColor=light-dark(#FFFFFF,#FFFFFF);" vertex="1" parent="L24kRfQmKUiIfzlVppwo-135">
          <mxGeometry x="200" width="40" height="40" as="geometry" />
        </mxCell>
        <mxCell id="L24kRfQmKUiIfzlVppwo-142" value="27" style="rounded=0;whiteSpace=wrap;html=1;" vertex="1" parent="L24kRfQmKUiIfzlVppwo-135">
          <mxGeometry x="240" width="40" height="40" as="geometry" />
        </mxCell>
        <mxCell id="L24kRfQmKUiIfzlVppwo-143" value="&lt;span style=&quot;color: light-dark(rgb(0, 0, 0), rgb(0, 0, 0));&quot;&gt;28&lt;/span&gt;" style="rounded=0;whiteSpace=wrap;html=1;fillColor=light-dark(#FFFFFF,#FFFFFF);" vertex="1" parent="L24kRfQmKUiIfzlVppwo-135">
          <mxGeometry x="280" width="40" height="40" as="geometry" />
        </mxCell>
        <mxCell id="L24kRfQmKUiIfzlVppwo-77" value="" style="group" vertex="1" connectable="0" parent="1">
          <mxGeometry x="680" y="360" width="400" height="40" as="geometry" />
        </mxCell>
        <mxCell id="L24kRfQmKUiIfzlVppwo-67" value="0" style="rounded=0;whiteSpace=wrap;html=1;" vertex="1" parent="L24kRfQmKUiIfzlVppwo-77">
          <mxGeometry width="40" height="40" as="geometry" />
        </mxCell>
        <mxCell id="L24kRfQmKUiIfzlVppwo-68" value="1" style="rounded=0;whiteSpace=wrap;html=1;" vertex="1" parent="L24kRfQmKUiIfzlVppwo-77">
          <mxGeometry x="40" width="40" height="40" as="geometry" />
        </mxCell>
        <mxCell id="L24kRfQmKUiIfzlVppwo-69" value="2" style="rounded=0;whiteSpace=wrap;html=1;" vertex="1" parent="L24kRfQmKUiIfzlVppwo-77">
          <mxGeometry x="80" width="40" height="40" as="geometry" />
        </mxCell>
        <mxCell id="L24kRfQmKUiIfzlVppwo-70" value="3" style="rounded=0;whiteSpace=wrap;html=1;" vertex="1" parent="L24kRfQmKUiIfzlVppwo-77">
          <mxGeometry x="120" width="40" height="40" as="geometry" />
        </mxCell>
        <mxCell id="L24kRfQmKUiIfzlVppwo-71" value="4" style="rounded=0;whiteSpace=wrap;html=1;" vertex="1" parent="L24kRfQmKUiIfzlVppwo-77">
          <mxGeometry x="160" width="40" height="40" as="geometry" />
        </mxCell>
        <mxCell id="L24kRfQmKUiIfzlVppwo-72" value="5" style="rounded=0;whiteSpace=wrap;html=1;" vertex="1" parent="L24kRfQmKUiIfzlVppwo-77">
          <mxGeometry x="200" width="40" height="40" as="geometry" />
        </mxCell>
        <mxCell id="L24kRfQmKUiIfzlVppwo-73" value="6" style="rounded=0;whiteSpace=wrap;html=1;" vertex="1" parent="L24kRfQmKUiIfzlVppwo-77">
          <mxGeometry x="240" width="40" height="40" as="geometry" />
        </mxCell>
        <mxCell id="L24kRfQmKUiIfzlVppwo-74" value="7" style="rounded=0;whiteSpace=wrap;html=1;" vertex="1" parent="L24kRfQmKUiIfzlVppwo-77">
          <mxGeometry x="280" width="40" height="40" as="geometry" />
        </mxCell>
        <mxCell id="L24kRfQmKUiIfzlVppwo-75" value="8" style="rounded=0;whiteSpace=wrap;html=1;" vertex="1" parent="L24kRfQmKUiIfzlVppwo-77">
          <mxGeometry x="320" width="40" height="40" as="geometry" />
        </mxCell>
        <mxCell id="L24kRfQmKUiIfzlVppwo-76" value="9" style="rounded=0;whiteSpace=wrap;html=1;" vertex="1" parent="L24kRfQmKUiIfzlVppwo-77">
          <mxGeometry x="360" width="40" height="40" as="geometry" />
        </mxCell>
        <mxCell id="L24kRfQmKUiIfzlVppwo-78" value="" style="group" vertex="1" connectable="0" parent="1">
          <mxGeometry x="680" y="320" width="400" height="40" as="geometry" />
        </mxCell>
        <mxCell id="L24kRfQmKUiIfzlVppwo-79" value="10" style="rounded=0;whiteSpace=wrap;html=1;" vertex="1" parent="L24kRfQmKUiIfzlVppwo-78">
          <mxGeometry width="40" height="40" as="geometry" />
        </mxCell>
        <mxCell id="L24kRfQmKUiIfzlVppwo-80" value="11" style="rounded=0;whiteSpace=wrap;html=1;" vertex="1" parent="L24kRfQmKUiIfzlVppwo-78">
          <mxGeometry x="40" width="40" height="40" as="geometry" />
        </mxCell>
        <mxCell id="L24kRfQmKUiIfzlVppwo-81" value="12" style="rounded=0;whiteSpace=wrap;html=1;" vertex="1" parent="L24kRfQmKUiIfzlVppwo-78">
          <mxGeometry x="80" width="40" height="40" as="geometry" />
        </mxCell>
        <mxCell id="L24kRfQmKUiIfzlVppwo-82" value="13" style="rounded=0;whiteSpace=wrap;html=1;" vertex="1" parent="L24kRfQmKUiIfzlVppwo-78">
          <mxGeometry x="120" width="40" height="40" as="geometry" />
        </mxCell>
        <mxCell id="L24kRfQmKUiIfzlVppwo-83" value="14" style="rounded=0;whiteSpace=wrap;html=1;" vertex="1" parent="L24kRfQmKUiIfzlVppwo-78">
          <mxGeometry x="160" width="40" height="40" as="geometry" />
        </mxCell>
        <mxCell id="L24kRfQmKUiIfzlVppwo-84" value="15" style="rounded=0;whiteSpace=wrap;html=1;" vertex="1" parent="L24kRfQmKUiIfzlVppwo-78">
          <mxGeometry x="200" width="40" height="40" as="geometry" />
        </mxCell>
        <mxCell id="L24kRfQmKUiIfzlVppwo-85" value="16" style="rounded=0;whiteSpace=wrap;html=1;" vertex="1" parent="L24kRfQmKUiIfzlVppwo-78">
          <mxGeometry x="240" width="40" height="40" as="geometry" />
        </mxCell>
        <mxCell id="L24kRfQmKUiIfzlVppwo-86" value="17" style="rounded=0;whiteSpace=wrap;html=1;" vertex="1" parent="L24kRfQmKUiIfzlVppwo-78">
          <mxGeometry x="280" width="40" height="40" as="geometry" />
        </mxCell>
        <mxCell id="L24kRfQmKUiIfzlVppwo-87" value="18" style="rounded=0;whiteSpace=wrap;html=1;" vertex="1" parent="L24kRfQmKUiIfzlVppwo-78">
          <mxGeometry x="320" width="40" height="40" as="geometry" />
        </mxCell>
        <mxCell id="L24kRfQmKUiIfzlVppwo-88" value="19" style="rounded=0;whiteSpace=wrap;html=1;" vertex="1" parent="L24kRfQmKUiIfzlVppwo-78">
          <mxGeometry x="360" width="40" height="40" as="geometry" />
        </mxCell>
        <mxCell id="L24kRfQmKUiIfzlVppwo-89" value="" style="group;flipV=0;flipH=0;rotation=90;" vertex="1" connectable="0" parent="1">
          <mxGeometry x="500" y="100" width="540" height="220" as="geometry" />
        </mxCell>
        <mxCell id="L24kRfQmKUiIfzlVppwo-90" value="0" style="rounded=0;whiteSpace=wrap;html=1;rotation=90;" vertex="1" parent="L24kRfQmKUiIfzlVppwo-89">
          <mxGeometry x="180" y="-180" width="40" height="40" as="geometry" />
        </mxCell>
        <mxCell id="L24kRfQmKUiIfzlVppwo-91" value="1" style="rounded=0;whiteSpace=wrap;html=1;rotation=90;" vertex="1" parent="L24kRfQmKUiIfzlVppwo-89">
          <mxGeometry x="180" y="-140" width="40" height="40" as="geometry" />
        </mxCell>
        <mxCell id="L24kRfQmKUiIfzlVppwo-92" value="90" style="rounded=0;whiteSpace=wrap;html=1;rotation=0;" vertex="1" parent="L24kRfQmKUiIfzlVppwo-89">
          <mxGeometry x="180" y="-100" width="40" height="40" as="geometry" />
        </mxCell>
        <mxCell id="L24kRfQmKUiIfzlVppwo-93" value="80" style="rounded=0;whiteSpace=wrap;html=1;rotation=0;" vertex="1" parent="L24kRfQmKUiIfzlVppwo-89">
          <mxGeometry x="180" y="-60" width="40" height="40" as="geometry" />
        </mxCell>
        <mxCell id="L24kRfQmKUiIfzlVppwo-94" value="70" style="rounded=0;whiteSpace=wrap;html=1;rotation=0;" vertex="1" parent="L24kRfQmKUiIfzlVppwo-89">
          <mxGeometry x="180" y="-20" width="40" height="40" as="geometry" />
        </mxCell>
        <mxCell id="L24kRfQmKUiIfzlVppwo-95" value="60" style="rounded=0;whiteSpace=wrap;html=1;rotation=0;" vertex="1" parent="L24kRfQmKUiIfzlVppwo-89">
          <mxGeometry x="180" y="20" width="40" height="40" as="geometry" />
        </mxCell>
        <mxCell id="L24kRfQmKUiIfzlVppwo-96" value="50" style="rounded=0;whiteSpace=wrap;html=1;rotation=0;" vertex="1" parent="L24kRfQmKUiIfzlVppwo-89">
          <mxGeometry x="180" y="60" width="40" height="40" as="geometry" />
        </mxCell>
        <mxCell id="L24kRfQmKUiIfzlVppwo-97" value="40" style="rounded=0;whiteSpace=wrap;html=1;rotation=0;" vertex="1" parent="L24kRfQmKUiIfzlVppwo-89">
          <mxGeometry x="180" y="100" width="40" height="40" as="geometry" />
        </mxCell>
        <mxCell id="L24kRfQmKUiIfzlVppwo-98" value="30" style="rounded=0;whiteSpace=wrap;html=1;rotation=0;" vertex="1" parent="L24kRfQmKUiIfzlVppwo-89">
          <mxGeometry x="180" y="140" width="40" height="40" as="geometry" />
        </mxCell>
        <mxCell id="L24kRfQmKUiIfzlVppwo-99" value="20" style="rounded=0;whiteSpace=wrap;html=1;rotation=0;" vertex="1" parent="L24kRfQmKUiIfzlVppwo-89">
          <mxGeometry x="180" y="180" width="40" height="40" as="geometry" />
        </mxCell>
        <mxCell id="L24kRfQmKUiIfzlVppwo-144" value="2" style="group" vertex="1" connectable="0" parent="L24kRfQmKUiIfzlVppwo-89">
          <mxGeometry x="220" y="20" width="320" height="40" as="geometry" />
        </mxCell>
        <mxCell id="L24kRfQmKUiIfzlVppwo-145" value="61" style="rounded=0;whiteSpace=wrap;html=1;" vertex="1" parent="L24kRfQmKUiIfzlVppwo-144">
          <mxGeometry width="40" height="40" as="geometry" />
        </mxCell>
        <mxCell id="L24kRfQmKUiIfzlVppwo-146" value="&lt;span style=&quot;color: light-dark(rgb(0, 0, 0), rgb(0, 0, 0));&quot;&gt;62&lt;/span&gt;" style="rounded=0;whiteSpace=wrap;html=1;fillColor=light-dark(#FFFFFF,#FFFFFF);" vertex="1" parent="L24kRfQmKUiIfzlVppwo-144">
          <mxGeometry x="40" width="40" height="40" as="geometry" />
        </mxCell>
        <mxCell id="L24kRfQmKUiIfzlVppwo-147" value="23" style="rounded=0;whiteSpace=wrap;html=1;" vertex="1" parent="L24kRfQmKUiIfzlVppwo-144">
          <mxGeometry x="80" width="40" height="40" as="geometry" />
        </mxCell>
        <mxCell id="L24kRfQmKUiIfzlVppwo-148" value="&lt;span style=&quot;color: light-dark(rgb(0, 0, 0), rgb(0, 0, 0));&quot;&gt;24&lt;/span&gt;" style="rounded=0;whiteSpace=wrap;html=1;fillColor=light-dark(#FFFFFF,#FFFFFF);" vertex="1" parent="L24kRfQmKUiIfzlVppwo-144">
          <mxGeometry x="120" width="40" height="40" as="geometry" />
        </mxCell>
        <mxCell id="L24kRfQmKUiIfzlVppwo-149" value="25" style="rounded=0;whiteSpace=wrap;html=1;" vertex="1" parent="L24kRfQmKUiIfzlVppwo-144">
          <mxGeometry x="160" width="40" height="40" as="geometry" />
        </mxCell>
        <mxCell id="L24kRfQmKUiIfzlVppwo-150" value="&lt;span style=&quot;color: light-dark(rgb(0, 0, 0), rgb(0, 0, 0));&quot;&gt;26&lt;/span&gt;" style="rounded=0;whiteSpace=wrap;html=1;fillColor=light-dark(#FFFFFF,#FFFFFF);" vertex="1" parent="L24kRfQmKUiIfzlVppwo-144">
          <mxGeometry x="200" width="40" height="40" as="geometry" />
        </mxCell>
        <mxCell id="L24kRfQmKUiIfzlVppwo-151" value="27" style="rounded=0;whiteSpace=wrap;html=1;" vertex="1" parent="L24kRfQmKUiIfzlVppwo-144">
          <mxGeometry x="240" width="40" height="40" as="geometry" />
        </mxCell>
        <mxCell id="L24kRfQmKUiIfzlVppwo-152" value="&lt;span style=&quot;color: light-dark(rgb(0, 0, 0), rgb(0, 0, 0));&quot;&gt;28&lt;/span&gt;" style="rounded=0;whiteSpace=wrap;html=1;fillColor=light-dark(#FFFFFF,#FFFFFF);" vertex="1" parent="L24kRfQmKUiIfzlVppwo-144">
          <mxGeometry x="280" width="40" height="40" as="geometry" />
        </mxCell>
        <mxCell id="L24kRfQmKUiIfzlVppwo-165" value="34" style="rounded=0;whiteSpace=wrap;html=1;fillColor=light-dark(#FFFFFF,#000000);" vertex="1" parent="L24kRfQmKUiIfzlVppwo-89">
          <mxGeometry x="340" y="140" width="40" height="40" as="geometry" />
        </mxCell>
        <mxCell id="L24kRfQmKUiIfzlVppwo-113" value="" style="group" vertex="1" connectable="0" parent="1">
          <mxGeometry x="680" y="-80" width="400" height="40" as="geometry" />
        </mxCell>
        <mxCell id="L24kRfQmKUiIfzlVppwo-114" value="110" style="rounded=0;whiteSpace=wrap;html=1;" vertex="1" parent="L24kRfQmKUiIfzlVppwo-113">
          <mxGeometry width="40" height="40" as="geometry" />
        </mxCell>
        <mxCell id="L24kRfQmKUiIfzlVppwo-115" value="111" style="rounded=0;whiteSpace=wrap;html=1;" vertex="1" parent="L24kRfQmKUiIfzlVppwo-113">
          <mxGeometry x="40" width="40" height="40" as="geometry" />
        </mxCell>
        <mxCell id="L24kRfQmKUiIfzlVppwo-116" value="112" style="rounded=0;whiteSpace=wrap;html=1;" vertex="1" parent="L24kRfQmKUiIfzlVppwo-113">
          <mxGeometry x="80" width="40" height="40" as="geometry" />
        </mxCell>
        <mxCell id="L24kRfQmKUiIfzlVppwo-117" value="113" style="rounded=0;whiteSpace=wrap;html=1;" vertex="1" parent="L24kRfQmKUiIfzlVppwo-113">
          <mxGeometry x="120" width="40" height="40" as="geometry" />
        </mxCell>
        <mxCell id="L24kRfQmKUiIfzlVppwo-118" value="114" style="rounded=0;whiteSpace=wrap;html=1;" vertex="1" parent="L24kRfQmKUiIfzlVppwo-113">
          <mxGeometry x="160" width="40" height="40" as="geometry" />
        </mxCell>
        <mxCell id="L24kRfQmKUiIfzlVppwo-119" value="115" style="rounded=0;whiteSpace=wrap;html=1;" vertex="1" parent="L24kRfQmKUiIfzlVppwo-113">
          <mxGeometry x="200" width="40" height="40" as="geometry" />
        </mxCell>
        <mxCell id="L24kRfQmKUiIfzlVppwo-120" value="116" style="rounded=0;whiteSpace=wrap;html=1;" vertex="1" parent="L24kRfQmKUiIfzlVppwo-113">
          <mxGeometry x="240" width="40" height="40" as="geometry" />
        </mxCell>
        <mxCell id="L24kRfQmKUiIfzlVppwo-121" value="117" style="rounded=0;whiteSpace=wrap;html=1;" vertex="1" parent="L24kRfQmKUiIfzlVppwo-113">
          <mxGeometry x="280" width="40" height="40" as="geometry" />
        </mxCell>
        <mxCell id="L24kRfQmKUiIfzlVppwo-122" value="118" style="rounded=0;whiteSpace=wrap;html=1;" vertex="1" parent="L24kRfQmKUiIfzlVppwo-113">
          <mxGeometry x="320" width="40" height="40" as="geometry" />
        </mxCell>
        <mxCell id="L24kRfQmKUiIfzlVppwo-123" value="0" style="rounded=0;whiteSpace=wrap;html=1;" vertex="1" parent="L24kRfQmKUiIfzlVppwo-113">
          <mxGeometry x="360" width="40" height="40" as="geometry" />
        </mxCell>
        <mxCell id="L24kRfQmKUiIfzlVppwo-124" value="" style="group" vertex="1" connectable="0" parent="1">
          <mxGeometry x="680" y="-40" width="400" height="40" as="geometry" />
        </mxCell>
        <mxCell id="L24kRfQmKUiIfzlVppwo-125" value="100" style="rounded=0;whiteSpace=wrap;html=1;" vertex="1" parent="L24kRfQmKUiIfzlVppwo-124">
          <mxGeometry width="40" height="40" as="geometry" />
        </mxCell>
        <mxCell id="L24kRfQmKUiIfzlVppwo-126" value="101" style="rounded=0;whiteSpace=wrap;html=1;" vertex="1" parent="L24kRfQmKUiIfzlVppwo-124">
          <mxGeometry x="40" width="40" height="40" as="geometry" />
        </mxCell>
        <mxCell id="L24kRfQmKUiIfzlVppwo-127" value="102" style="rounded=0;whiteSpace=wrap;html=1;" vertex="1" parent="L24kRfQmKUiIfzlVppwo-124">
          <mxGeometry x="80" width="40" height="40" as="geometry" />
        </mxCell>
        <mxCell id="L24kRfQmKUiIfzlVppwo-128" value="103" style="rounded=0;whiteSpace=wrap;html=1;" vertex="1" parent="L24kRfQmKUiIfzlVppwo-124">
          <mxGeometry x="120" width="40" height="40" as="geometry" />
        </mxCell>
        <mxCell id="L24kRfQmKUiIfzlVppwo-129" value="104" style="rounded=0;whiteSpace=wrap;html=1;" vertex="1" parent="L24kRfQmKUiIfzlVppwo-124">
          <mxGeometry x="160" width="40" height="40" as="geometry" />
        </mxCell>
        <mxCell id="L24kRfQmKUiIfzlVppwo-130" value="105" style="rounded=0;whiteSpace=wrap;html=1;" vertex="1" parent="L24kRfQmKUiIfzlVppwo-124">
          <mxGeometry x="200" width="40" height="40" as="geometry" />
        </mxCell>
        <mxCell id="L24kRfQmKUiIfzlVppwo-131" value="106" style="rounded=0;whiteSpace=wrap;html=1;" vertex="1" parent="L24kRfQmKUiIfzlVppwo-124">
          <mxGeometry x="240" width="40" height="40" as="geometry" />
        </mxCell>
        <mxCell id="L24kRfQmKUiIfzlVppwo-132" value="107" style="rounded=0;whiteSpace=wrap;html=1;" vertex="1" parent="L24kRfQmKUiIfzlVppwo-124">
          <mxGeometry x="280" width="40" height="40" as="geometry" />
        </mxCell>
        <mxCell id="L24kRfQmKUiIfzlVppwo-133" value="108" style="rounded=0;whiteSpace=wrap;html=1;" vertex="1" parent="L24kRfQmKUiIfzlVppwo-124">
          <mxGeometry x="320" width="40" height="40" as="geometry" />
        </mxCell>
        <mxCell id="L24kRfQmKUiIfzlVppwo-134" value="0" style="rounded=0;whiteSpace=wrap;html=1;" vertex="1" parent="L24kRfQmKUiIfzlVppwo-124">
          <mxGeometry x="360" width="40" height="40" as="geometry" />
        </mxCell>
        <mxCell id="L24kRfQmKUiIfzlVppwo-103" value="119" style="rounded=0;whiteSpace=wrap;html=1;rotation=0;" vertex="1" parent="1">
          <mxGeometry x="1040" y="-80" width="40" height="40" as="geometry" />
        </mxCell>
        <mxCell id="L24kRfQmKUiIfzlVppwo-104" value="109" style="rounded=0;whiteSpace=wrap;html=1;rotation=0;" vertex="1" parent="1">
          <mxGeometry x="1040" y="-40" width="40" height="40" as="geometry" />
        </mxCell>
        <mxCell id="L24kRfQmKUiIfzlVppwo-105" value="99" style="rounded=0;whiteSpace=wrap;html=1;rotation=0;" vertex="1" parent="1">
          <mxGeometry x="1040" width="40" height="40" as="geometry" />
        </mxCell>
        <mxCell id="L24kRfQmKUiIfzlVppwo-106" value="89" style="rounded=0;whiteSpace=wrap;html=1;rotation=0;" vertex="1" parent="1">
          <mxGeometry x="1040" y="40" width="40" height="40" as="geometry" />
        </mxCell>
        <mxCell id="L24kRfQmKUiIfzlVppwo-107" value="79" style="rounded=0;whiteSpace=wrap;html=1;rotation=0;" vertex="1" parent="1">
          <mxGeometry x="1040" y="80" width="40" height="40" as="geometry" />
        </mxCell>
        <mxCell id="L24kRfQmKUiIfzlVppwo-108" value="69" style="rounded=0;whiteSpace=wrap;html=1;rotation=0;" vertex="1" parent="1">
          <mxGeometry x="1040" y="120" width="40" height="40" as="geometry" />
        </mxCell>
        <mxCell id="L24kRfQmKUiIfzlVppwo-109" value="59" style="rounded=0;whiteSpace=wrap;html=1;rotation=0;" vertex="1" parent="1">
          <mxGeometry x="1040" y="160" width="40" height="40" as="geometry" />
        </mxCell>
        <mxCell id="L24kRfQmKUiIfzlVppwo-110" value="49" style="rounded=0;whiteSpace=wrap;html=1;rotation=0;" vertex="1" parent="1">
          <mxGeometry x="1040" y="200" width="40" height="40" as="geometry" />
        </mxCell>
        <mxCell id="L24kRfQmKUiIfzlVppwo-111" value="39" style="rounded=0;whiteSpace=wrap;html=1;rotation=0;" vertex="1" parent="1">
          <mxGeometry x="1040" y="240" width="40" height="40" as="geometry" />
        </mxCell>
        <mxCell id="L24kRfQmKUiIfzlVppwo-112" value="29" style="rounded=0;whiteSpace=wrap;html=1;rotation=0;" vertex="1" parent="1">
          <mxGeometry x="1040" y="280" width="40" height="40" as="geometry" />
        </mxCell>
        <mxCell id="L24kRfQmKUiIfzlVppwo-228" value="" style="group" vertex="1" connectable="0" parent="1">
          <mxGeometry x="720" width="320" height="320" as="geometry" />
        </mxCell>
        <mxCell id="L24kRfQmKUiIfzlVppwo-40" value="" style="group" vertex="1" connectable="0" parent="L24kRfQmKUiIfzlVppwo-228">
          <mxGeometry width="320" height="80" as="geometry" />
        </mxCell>
        <mxCell id="L24kRfQmKUiIfzlVppwo-41" value="" style="rounded=0;whiteSpace=wrap;html=1;movable=1;resizable=1;rotatable=1;deletable=1;editable=1;locked=0;connectable=1;fillColor=light-dark(#FFFFFF,#FFFFFF);" vertex="1" parent="L24kRfQmKUiIfzlVppwo-40">
          <mxGeometry width="40" height="40" as="geometry" />
        </mxCell>
        <mxCell id="L24kRfQmKUiIfzlVppwo-42" value="92" style="rounded=0;whiteSpace=wrap;html=1;fillColor=light-dark(#FFFFFF,#000000);" vertex="1" parent="L24kRfQmKUiIfzlVppwo-40">
          <mxGeometry x="40" width="40" height="40" as="geometry" />
        </mxCell>
        <mxCell id="L24kRfQmKUiIfzlVppwo-43" value="" style="rounded=0;whiteSpace=wrap;html=1;fillColor=light-dark(#FFFFFF,#FFFFFF);" vertex="1" parent="L24kRfQmKUiIfzlVppwo-40">
          <mxGeometry x="80" width="40" height="40" as="geometry" />
        </mxCell>
        <mxCell id="L24kRfQmKUiIfzlVppwo-44" value="94" style="rounded=0;whiteSpace=wrap;html=1;fillColor=light-dark(#FFFFFF,#000000);" vertex="1" parent="L24kRfQmKUiIfzlVppwo-40">
          <mxGeometry x="120" width="40" height="40" as="geometry" />
        </mxCell>
        <mxCell id="L24kRfQmKUiIfzlVppwo-45" value="" style="rounded=0;whiteSpace=wrap;html=1;fillColor=light-dark(#FFFFFF,#FFFFFF);" vertex="1" parent="L24kRfQmKUiIfzlVppwo-40">
          <mxGeometry x="160" width="40" height="40" as="geometry" />
        </mxCell>
        <mxCell id="L24kRfQmKUiIfzlVppwo-46" value="96" style="rounded=0;whiteSpace=wrap;html=1;fillColor=light-dark(#FFFFFF,#000000);" vertex="1" parent="L24kRfQmKUiIfzlVppwo-40">
          <mxGeometry x="200" width="40" height="40" as="geometry" />
        </mxCell>
        <mxCell id="L24kRfQmKUiIfzlVppwo-47" value="" style="rounded=0;whiteSpace=wrap;html=1;fillColor=light-dark(#FFFFFF,#FFFFFF);" vertex="1" parent="L24kRfQmKUiIfzlVppwo-40">
          <mxGeometry x="240" width="40" height="40" as="geometry" />
        </mxCell>
        <mxCell id="L24kRfQmKUiIfzlVppwo-48" value="98" style="rounded=0;whiteSpace=wrap;html=1;fillColor=light-dark(#FFFFFF,#000000);" vertex="1" parent="L24kRfQmKUiIfzlVppwo-40">
          <mxGeometry x="280" width="40" height="40" as="geometry" />
        </mxCell>
        <mxCell id="L24kRfQmKUiIfzlVppwo-206" value="" style="group" vertex="1" connectable="0" parent="L24kRfQmKUiIfzlVppwo-40">
          <mxGeometry width="320" height="80" as="geometry" />
        </mxCell>
        <mxCell id="L24kRfQmKUiIfzlVppwo-207" value="2" style="group" vertex="1" connectable="0" parent="L24kRfQmKUiIfzlVppwo-206">
          <mxGeometry y="40" width="320" height="40" as="geometry" />
        </mxCell>
        <mxCell id="L24kRfQmKUiIfzlVppwo-208" value="81" style="rounded=0;whiteSpace=wrap;html=1;" vertex="1" parent="L24kRfQmKUiIfzlVppwo-207">
          <mxGeometry width="40" height="40" as="geometry" />
        </mxCell>
        <mxCell id="L24kRfQmKUiIfzlVppwo-209" value="&lt;span style=&quot;color: light-dark(rgb(0, 0, 0), rgb(0, 0, 0));&quot;&gt;82&lt;/span&gt;" style="rounded=0;whiteSpace=wrap;html=1;fillColor=light-dark(#FFFFFF,#FFFFFF);" vertex="1" parent="L24kRfQmKUiIfzlVppwo-207">
          <mxGeometry x="40" width="40" height="40" as="geometry" />
        </mxCell>
        <mxCell id="L24kRfQmKUiIfzlVppwo-210" value="83" style="rounded=0;whiteSpace=wrap;html=1;" vertex="1" parent="L24kRfQmKUiIfzlVppwo-207">
          <mxGeometry x="80" width="40" height="40" as="geometry" />
        </mxCell>
        <mxCell id="L24kRfQmKUiIfzlVppwo-211" value="&lt;span style=&quot;color: light-dark(rgb(0, 0, 0), rgb(0, 0, 0));&quot;&gt;24&lt;/span&gt;" style="rounded=0;whiteSpace=wrap;html=1;fillColor=light-dark(#FFFFFF,#FFFFFF);" vertex="1" parent="L24kRfQmKUiIfzlVppwo-207">
          <mxGeometry x="120" width="40" height="40" as="geometry" />
        </mxCell>
        <mxCell id="L24kRfQmKUiIfzlVppwo-212" value="85" style="rounded=0;whiteSpace=wrap;html=1;" vertex="1" parent="L24kRfQmKUiIfzlVppwo-207">
          <mxGeometry x="160" width="40" height="40" as="geometry" />
        </mxCell>
        <mxCell id="L24kRfQmKUiIfzlVppwo-213" value="&lt;span style=&quot;color: light-dark(rgb(0, 0, 0), rgb(0, 0, 0));&quot;&gt;26&lt;/span&gt;" style="rounded=0;whiteSpace=wrap;html=1;fillColor=light-dark(#FFFFFF,#FFFFFF);" vertex="1" parent="L24kRfQmKUiIfzlVppwo-207">
          <mxGeometry x="200" width="40" height="40" as="geometry" />
        </mxCell>
        <mxCell id="L24kRfQmKUiIfzlVppwo-214" value="87" style="rounded=0;whiteSpace=wrap;html=1;" vertex="1" parent="L24kRfQmKUiIfzlVppwo-207">
          <mxGeometry x="240" width="40" height="40" as="geometry" />
        </mxCell>
        <mxCell id="L24kRfQmKUiIfzlVppwo-215" value="&lt;span style=&quot;color: light-dark(rgb(0, 0, 0), rgb(0, 0, 0));&quot;&gt;28&lt;/span&gt;" style="rounded=0;whiteSpace=wrap;html=1;fillColor=light-dark(#FFFFFF,#FFFFFF);" vertex="1" parent="L24kRfQmKUiIfzlVppwo-207">
          <mxGeometry x="280" width="40" height="40" as="geometry" />
        </mxCell>
        <mxCell id="L24kRfQmKUiIfzlVppwo-216" value="" style="group" vertex="1" connectable="0" parent="L24kRfQmKUiIfzlVppwo-206">
          <mxGeometry width="320" height="40" as="geometry" />
        </mxCell>
        <mxCell id="L24kRfQmKUiIfzlVppwo-217" value="91" style="rounded=0;whiteSpace=wrap;html=1;movable=1;resizable=1;rotatable=1;deletable=1;editable=1;locked=0;connectable=1;fillColor=light-dark(#FFFFFF,#FFFFFF);fontColor=light-dark(#000000,#000000);" vertex="1" parent="L24kRfQmKUiIfzlVppwo-216">
          <mxGeometry width="40" height="40" as="geometry" />
        </mxCell>
        <mxCell id="L24kRfQmKUiIfzlVppwo-218" value="92" style="rounded=0;whiteSpace=wrap;html=1;fillColor=light-dark(#FFFFFF,#000000);" vertex="1" parent="L24kRfQmKUiIfzlVppwo-216">
          <mxGeometry x="40" width="40" height="40" as="geometry" />
        </mxCell>
        <mxCell id="L24kRfQmKUiIfzlVppwo-219" value="33" style="rounded=0;whiteSpace=wrap;html=1;fillColor=light-dark(#FFFFFF,#FFFFFF);fontColor=light-dark(#000000,#000000);" vertex="1" parent="L24kRfQmKUiIfzlVppwo-216">
          <mxGeometry x="80" width="40" height="40" as="geometry" />
        </mxCell>
        <mxCell id="L24kRfQmKUiIfzlVppwo-220" value="94" style="rounded=0;whiteSpace=wrap;html=1;fillColor=light-dark(#FFFFFF,#000000);" vertex="1" parent="L24kRfQmKUiIfzlVppwo-216">
          <mxGeometry x="120" width="40" height="40" as="geometry" />
        </mxCell>
        <mxCell id="L24kRfQmKUiIfzlVppwo-221" value="35" style="rounded=0;whiteSpace=wrap;html=1;fillColor=light-dark(#FFFFFF,#FFFFFF);fontColor=light-dark(#000000,#000000);" vertex="1" parent="L24kRfQmKUiIfzlVppwo-216">
          <mxGeometry x="160" width="40" height="40" as="geometry" />
        </mxCell>
        <mxCell id="L24kRfQmKUiIfzlVppwo-222" value="96" style="rounded=0;whiteSpace=wrap;html=1;fillColor=light-dark(#FFFFFF,#000000);" vertex="1" parent="L24kRfQmKUiIfzlVppwo-216">
          <mxGeometry x="200" width="40" height="40" as="geometry" />
        </mxCell>
        <mxCell id="L24kRfQmKUiIfzlVppwo-223" value="37" style="rounded=0;whiteSpace=wrap;html=1;fillColor=light-dark(#FFFFFF,#FFFFFF);fontColor=light-dark(#000000,#000000);" vertex="1" parent="L24kRfQmKUiIfzlVppwo-216">
          <mxGeometry x="240" width="40" height="40" as="geometry" />
        </mxCell>
        <mxCell id="L24kRfQmKUiIfzlVppwo-224" value="98" style="rounded=0;whiteSpace=wrap;html=1;fillColor=light-dark(#FFFFFF,#000000);" vertex="1" parent="L24kRfQmKUiIfzlVppwo-216">
          <mxGeometry x="280" width="40" height="40" as="geometry" />
        </mxCell>
        <mxCell id="L24kRfQmKUiIfzlVppwo-49" value="" style="group" vertex="1" connectable="0" parent="L24kRfQmKUiIfzlVppwo-228">
          <mxGeometry y="80" width="320" height="80" as="geometry" />
        </mxCell>
        <mxCell id="L24kRfQmKUiIfzlVppwo-50" value="" style="rounded=0;whiteSpace=wrap;html=1;movable=1;resizable=1;rotatable=1;deletable=1;editable=1;locked=0;connectable=1;fillColor=light-dark(#FFFFFF,#FFFFFF);" vertex="1" parent="L24kRfQmKUiIfzlVppwo-49">
          <mxGeometry width="40" height="40" as="geometry" />
        </mxCell>
        <mxCell id="L24kRfQmKUiIfzlVppwo-51" value="72" style="rounded=0;whiteSpace=wrap;html=1;fillColor=light-dark(#FFFFFF,#000000);" vertex="1" parent="L24kRfQmKUiIfzlVppwo-49">
          <mxGeometry x="40" width="40" height="40" as="geometry" />
        </mxCell>
        <mxCell id="L24kRfQmKUiIfzlVppwo-52" value="" style="rounded=0;whiteSpace=wrap;html=1;fillColor=light-dark(#FFFFFF,#FFFFFF);" vertex="1" parent="L24kRfQmKUiIfzlVppwo-49">
          <mxGeometry x="80" width="40" height="40" as="geometry" />
        </mxCell>
        <mxCell id="L24kRfQmKUiIfzlVppwo-53" value="74" style="rounded=0;whiteSpace=wrap;html=1;fillColor=light-dark(#FFFFFF,#000000);" vertex="1" parent="L24kRfQmKUiIfzlVppwo-49">
          <mxGeometry x="120" width="40" height="40" as="geometry" />
        </mxCell>
        <mxCell id="L24kRfQmKUiIfzlVppwo-54" value="" style="rounded=0;whiteSpace=wrap;html=1;fillColor=light-dark(#FFFFFF,#FFFFFF);" vertex="1" parent="L24kRfQmKUiIfzlVppwo-49">
          <mxGeometry x="160" width="40" height="40" as="geometry" />
        </mxCell>
        <mxCell id="L24kRfQmKUiIfzlVppwo-55" value="76" style="rounded=0;whiteSpace=wrap;html=1;fillColor=light-dark(#FFFFFF,#000000);" vertex="1" parent="L24kRfQmKUiIfzlVppwo-49">
          <mxGeometry x="200" width="40" height="40" as="geometry" />
        </mxCell>
        <mxCell id="L24kRfQmKUiIfzlVppwo-56" value="" style="rounded=0;whiteSpace=wrap;html=1;fillColor=light-dark(#FFFFFF,#FFFFFF);" vertex="1" parent="L24kRfQmKUiIfzlVppwo-49">
          <mxGeometry x="240" width="40" height="40" as="geometry" />
        </mxCell>
        <mxCell id="L24kRfQmKUiIfzlVppwo-57" value="78" style="rounded=0;whiteSpace=wrap;html=1;fillColor=light-dark(#FFFFFF,#000000);" vertex="1" parent="L24kRfQmKUiIfzlVppwo-49">
          <mxGeometry x="280" width="40" height="40" as="geometry" />
        </mxCell>
        <mxCell id="L24kRfQmKUiIfzlVppwo-187" value="" style="group" vertex="1" connectable="0" parent="L24kRfQmKUiIfzlVppwo-49">
          <mxGeometry width="320" height="80" as="geometry" />
        </mxCell>
        <mxCell id="L24kRfQmKUiIfzlVppwo-188" value="2" style="group" vertex="1" connectable="0" parent="L24kRfQmKUiIfzlVppwo-187">
          <mxGeometry y="40" width="320" height="40" as="geometry" />
        </mxCell>
        <mxCell id="L24kRfQmKUiIfzlVppwo-189" value="61" style="rounded=0;whiteSpace=wrap;html=1;" vertex="1" parent="L24kRfQmKUiIfzlVppwo-188">
          <mxGeometry width="40" height="40" as="geometry" />
        </mxCell>
        <mxCell id="L24kRfQmKUiIfzlVppwo-190" value="&lt;span style=&quot;color: light-dark(rgb(0, 0, 0), rgb(0, 0, 0));&quot;&gt;22&lt;/span&gt;" style="rounded=0;whiteSpace=wrap;html=1;fillColor=light-dark(#FFFFFF,#FFFFFF);" vertex="1" parent="L24kRfQmKUiIfzlVppwo-188">
          <mxGeometry x="40" width="40" height="40" as="geometry" />
        </mxCell>
        <mxCell id="L24kRfQmKUiIfzlVppwo-191" value="63" style="rounded=0;whiteSpace=wrap;html=1;" vertex="1" parent="L24kRfQmKUiIfzlVppwo-188">
          <mxGeometry x="80" width="40" height="40" as="geometry" />
        </mxCell>
        <mxCell id="L24kRfQmKUiIfzlVppwo-192" value="&lt;span style=&quot;color: light-dark(rgb(0, 0, 0), rgb(0, 0, 0));&quot;&gt;24&lt;/span&gt;" style="rounded=0;whiteSpace=wrap;html=1;fillColor=light-dark(#FFFFFF,#FFFFFF);" vertex="1" parent="L24kRfQmKUiIfzlVppwo-188">
          <mxGeometry x="120" width="40" height="40" as="geometry" />
        </mxCell>
        <mxCell id="L24kRfQmKUiIfzlVppwo-193" value="65" style="rounded=0;whiteSpace=wrap;html=1;" vertex="1" parent="L24kRfQmKUiIfzlVppwo-188">
          <mxGeometry x="160" width="40" height="40" as="geometry" />
        </mxCell>
        <mxCell id="L24kRfQmKUiIfzlVppwo-194" value="&lt;span style=&quot;color: light-dark(rgb(0, 0, 0), rgb(0, 0, 0));&quot;&gt;26&lt;/span&gt;" style="rounded=0;whiteSpace=wrap;html=1;fillColor=light-dark(#FFFFFF,#FFFFFF);" vertex="1" parent="L24kRfQmKUiIfzlVppwo-188">
          <mxGeometry x="200" width="40" height="40" as="geometry" />
        </mxCell>
        <mxCell id="L24kRfQmKUiIfzlVppwo-195" value="67" style="rounded=0;whiteSpace=wrap;html=1;" vertex="1" parent="L24kRfQmKUiIfzlVppwo-188">
          <mxGeometry x="240" width="40" height="40" as="geometry" />
        </mxCell>
        <mxCell id="L24kRfQmKUiIfzlVppwo-196" value="&lt;span style=&quot;color: light-dark(rgb(0, 0, 0), rgb(0, 0, 0));&quot;&gt;28&lt;/span&gt;" style="rounded=0;whiteSpace=wrap;html=1;fillColor=light-dark(#FFFFFF,#FFFFFF);" vertex="1" parent="L24kRfQmKUiIfzlVppwo-188">
          <mxGeometry x="280" width="40" height="40" as="geometry" />
        </mxCell>
        <mxCell id="L24kRfQmKUiIfzlVppwo-197" value="" style="group" vertex="1" connectable="0" parent="L24kRfQmKUiIfzlVppwo-187">
          <mxGeometry width="320" height="40" as="geometry" />
        </mxCell>
        <mxCell id="L24kRfQmKUiIfzlVppwo-198" value="71" style="rounded=0;whiteSpace=wrap;html=1;movable=1;resizable=1;rotatable=1;deletable=1;editable=1;locked=0;connectable=1;fillColor=light-dark(#FFFFFF,#FFFFFF);fontColor=light-dark(#000000,#000000);" vertex="1" parent="L24kRfQmKUiIfzlVppwo-197">
          <mxGeometry width="40" height="40" as="geometry" />
        </mxCell>
        <mxCell id="L24kRfQmKUiIfzlVppwo-199" value="72" style="rounded=0;whiteSpace=wrap;html=1;fillColor=light-dark(#FFFFFF,#000000);" vertex="1" parent="L24kRfQmKUiIfzlVppwo-197">
          <mxGeometry x="40" width="40" height="40" as="geometry" />
        </mxCell>
        <mxCell id="L24kRfQmKUiIfzlVppwo-200" value="33" style="rounded=0;whiteSpace=wrap;html=1;fillColor=light-dark(#FFFFFF,#FFFFFF);fontColor=light-dark(#000000,#000000);" vertex="1" parent="L24kRfQmKUiIfzlVppwo-197">
          <mxGeometry x="80" width="40" height="40" as="geometry" />
        </mxCell>
        <mxCell id="L24kRfQmKUiIfzlVppwo-201" value="74" style="rounded=0;whiteSpace=wrap;html=1;fillColor=light-dark(#FFFFFF,#000000);" vertex="1" parent="L24kRfQmKUiIfzlVppwo-197">
          <mxGeometry x="120" width="40" height="40" as="geometry" />
        </mxCell>
        <mxCell id="L24kRfQmKUiIfzlVppwo-202" value="35" style="rounded=0;whiteSpace=wrap;html=1;fillColor=light-dark(#FFFFFF,#FFFFFF);fontColor=light-dark(#000000,#000000);" vertex="1" parent="L24kRfQmKUiIfzlVppwo-197">
          <mxGeometry x="160" width="40" height="40" as="geometry" />
        </mxCell>
        <mxCell id="L24kRfQmKUiIfzlVppwo-203" value="76" style="rounded=0;whiteSpace=wrap;html=1;fillColor=light-dark(#FFFFFF,#000000);" vertex="1" parent="L24kRfQmKUiIfzlVppwo-197">
          <mxGeometry x="200" width="40" height="40" as="geometry" />
        </mxCell>
        <mxCell id="L24kRfQmKUiIfzlVppwo-204" value="37" style="rounded=0;whiteSpace=wrap;html=1;fillColor=light-dark(#FFFFFF,#FFFFFF);fontColor=light-dark(#000000,#000000);" vertex="1" parent="L24kRfQmKUiIfzlVppwo-197">
          <mxGeometry x="240" width="40" height="40" as="geometry" />
        </mxCell>
        <mxCell id="L24kRfQmKUiIfzlVppwo-205" value="78" style="rounded=0;whiteSpace=wrap;html=1;fillColor=light-dark(#FFFFFF,#000000);" vertex="1" parent="L24kRfQmKUiIfzlVppwo-197">
          <mxGeometry x="280" width="40" height="40" as="geometry" />
        </mxCell>
        <mxCell id="L24kRfQmKUiIfzlVppwo-58" value="" style="group" vertex="1" connectable="0" parent="L24kRfQmKUiIfzlVppwo-228">
          <mxGeometry y="160" width="320" height="80" as="geometry" />
        </mxCell>
        <mxCell id="L24kRfQmKUiIfzlVppwo-59" value="" style="rounded=0;whiteSpace=wrap;html=1;movable=1;resizable=1;rotatable=1;deletable=1;editable=1;locked=0;connectable=1;fillColor=light-dark(#FFFFFF,#FFFFFF);" vertex="1" parent="L24kRfQmKUiIfzlVppwo-58">
          <mxGeometry width="40" height="40" as="geometry" />
        </mxCell>
        <mxCell id="L24kRfQmKUiIfzlVppwo-60" value="52" style="rounded=0;whiteSpace=wrap;html=1;fillColor=light-dark(#FFFFFF,#000000);" vertex="1" parent="L24kRfQmKUiIfzlVppwo-58">
          <mxGeometry x="40" width="40" height="40" as="geometry" />
        </mxCell>
        <mxCell id="L24kRfQmKUiIfzlVppwo-61" value="" style="rounded=0;whiteSpace=wrap;html=1;fillColor=light-dark(#FFFFFF,#FFFFFF);" vertex="1" parent="L24kRfQmKUiIfzlVppwo-58">
          <mxGeometry x="80" width="40" height="40" as="geometry" />
        </mxCell>
        <mxCell id="L24kRfQmKUiIfzlVppwo-62" value="54" style="rounded=0;whiteSpace=wrap;html=1;fillColor=light-dark(#FFFFFF,#000000);" vertex="1" parent="L24kRfQmKUiIfzlVppwo-58">
          <mxGeometry x="120" width="40" height="40" as="geometry" />
        </mxCell>
        <mxCell id="L24kRfQmKUiIfzlVppwo-63" value="" style="rounded=0;whiteSpace=wrap;html=1;fillColor=light-dark(#FFFFFF,#FFFFFF);" vertex="1" parent="L24kRfQmKUiIfzlVppwo-58">
          <mxGeometry x="160" width="40" height="40" as="geometry" />
        </mxCell>
        <mxCell id="L24kRfQmKUiIfzlVppwo-64" value="56" style="rounded=0;whiteSpace=wrap;html=1;fillColor=light-dark(#FFFFFF,#000000);" vertex="1" parent="L24kRfQmKUiIfzlVppwo-58">
          <mxGeometry x="200" width="40" height="40" as="geometry" />
        </mxCell>
        <mxCell id="L24kRfQmKUiIfzlVppwo-65" value="" style="rounded=0;whiteSpace=wrap;html=1;fillColor=light-dark(#FFFFFF,#FFFFFF);" vertex="1" parent="L24kRfQmKUiIfzlVppwo-58">
          <mxGeometry x="240" width="40" height="40" as="geometry" />
        </mxCell>
        <mxCell id="L24kRfQmKUiIfzlVppwo-66" value="58" style="rounded=0;whiteSpace=wrap;html=1;fillColor=light-dark(#FFFFFF,#000000);" vertex="1" parent="L24kRfQmKUiIfzlVppwo-58">
          <mxGeometry x="280" width="40" height="40" as="geometry" />
        </mxCell>
        <mxCell id="L24kRfQmKUiIfzlVppwo-168" value="" style="group" vertex="1" connectable="0" parent="L24kRfQmKUiIfzlVppwo-58">
          <mxGeometry width="320" height="80" as="geometry" />
        </mxCell>
        <mxCell id="L24kRfQmKUiIfzlVppwo-169" value="2" style="group" vertex="1" connectable="0" parent="L24kRfQmKUiIfzlVppwo-168">
          <mxGeometry y="40" width="320" height="40" as="geometry" />
        </mxCell>
        <mxCell id="L24kRfQmKUiIfzlVppwo-170" value="41" style="rounded=0;whiteSpace=wrap;html=1;" vertex="1" parent="L24kRfQmKUiIfzlVppwo-169">
          <mxGeometry width="40" height="40" as="geometry" />
        </mxCell>
        <mxCell id="L24kRfQmKUiIfzlVppwo-171" value="&lt;span style=&quot;color: light-dark(rgb(0, 0, 0), rgb(0, 0, 0));&quot;&gt;42&lt;/span&gt;" style="rounded=0;whiteSpace=wrap;html=1;fillColor=light-dark(#FFFFFF,#FFFFFF);" vertex="1" parent="L24kRfQmKUiIfzlVppwo-169">
          <mxGeometry x="40" width="40" height="40" as="geometry" />
        </mxCell>
        <mxCell id="L24kRfQmKUiIfzlVppwo-172" value="43" style="rounded=0;whiteSpace=wrap;html=1;" vertex="1" parent="L24kRfQmKUiIfzlVppwo-169">
          <mxGeometry x="80" width="40" height="40" as="geometry" />
        </mxCell>
        <mxCell id="L24kRfQmKUiIfzlVppwo-173" value="&lt;span style=&quot;color: light-dark(rgb(0, 0, 0), rgb(0, 0, 0));&quot;&gt;24&lt;/span&gt;" style="rounded=0;whiteSpace=wrap;html=1;fillColor=light-dark(#FFFFFF,#FFFFFF);" vertex="1" parent="L24kRfQmKUiIfzlVppwo-169">
          <mxGeometry x="120" width="40" height="40" as="geometry" />
        </mxCell>
        <mxCell id="L24kRfQmKUiIfzlVppwo-174" value="45" style="rounded=0;whiteSpace=wrap;html=1;" vertex="1" parent="L24kRfQmKUiIfzlVppwo-169">
          <mxGeometry x="160" width="40" height="40" as="geometry" />
        </mxCell>
        <mxCell id="L24kRfQmKUiIfzlVppwo-175" value="&lt;span style=&quot;color: light-dark(rgb(0, 0, 0), rgb(0, 0, 0));&quot;&gt;26&lt;/span&gt;" style="rounded=0;whiteSpace=wrap;html=1;fillColor=light-dark(#FFFFFF,#FFFFFF);" vertex="1" parent="L24kRfQmKUiIfzlVppwo-169">
          <mxGeometry x="200" width="40" height="40" as="geometry" />
        </mxCell>
        <mxCell id="L24kRfQmKUiIfzlVppwo-176" value="47" style="rounded=0;whiteSpace=wrap;html=1;" vertex="1" parent="L24kRfQmKUiIfzlVppwo-169">
          <mxGeometry x="240" width="40" height="40" as="geometry" />
        </mxCell>
        <mxCell id="L24kRfQmKUiIfzlVppwo-177" value="&lt;span style=&quot;color: light-dark(rgb(0, 0, 0), rgb(0, 0, 0));&quot;&gt;28&lt;/span&gt;" style="rounded=0;whiteSpace=wrap;html=1;fillColor=light-dark(#FFFFFF,#FFFFFF);" vertex="1" parent="L24kRfQmKUiIfzlVppwo-169">
          <mxGeometry x="280" width="40" height="40" as="geometry" />
        </mxCell>
        <mxCell id="L24kRfQmKUiIfzlVppwo-178" value="" style="group" vertex="1" connectable="0" parent="L24kRfQmKUiIfzlVppwo-168">
          <mxGeometry width="320" height="40" as="geometry" />
        </mxCell>
        <mxCell id="L24kRfQmKUiIfzlVppwo-179" value="51" style="rounded=0;whiteSpace=wrap;html=1;movable=1;resizable=1;rotatable=1;deletable=1;editable=1;locked=0;connectable=1;fillColor=light-dark(#FFFFFF,#FFFFFF);fontColor=light-dark(#000000,#000000);" vertex="1" parent="L24kRfQmKUiIfzlVppwo-178">
          <mxGeometry width="40" height="40" as="geometry" />
        </mxCell>
        <mxCell id="L24kRfQmKUiIfzlVppwo-180" value="52" style="rounded=0;whiteSpace=wrap;html=1;fillColor=light-dark(#FFFFFF,#000000);" vertex="1" parent="L24kRfQmKUiIfzlVppwo-178">
          <mxGeometry x="40" width="40" height="40" as="geometry" />
        </mxCell>
        <mxCell id="L24kRfQmKUiIfzlVppwo-181" value="33" style="rounded=0;whiteSpace=wrap;html=1;fillColor=light-dark(#FFFFFF,#FFFFFF);fontColor=light-dark(#000000,#000000);" vertex="1" parent="L24kRfQmKUiIfzlVppwo-178">
          <mxGeometry x="80" width="40" height="40" as="geometry" />
        </mxCell>
        <mxCell id="L24kRfQmKUiIfzlVppwo-182" value="54" style="rounded=0;whiteSpace=wrap;html=1;fillColor=light-dark(#FFFFFF,#000000);" vertex="1" parent="L24kRfQmKUiIfzlVppwo-178">
          <mxGeometry x="120" width="40" height="40" as="geometry" />
        </mxCell>
        <mxCell id="L24kRfQmKUiIfzlVppwo-183" value="35" style="rounded=0;whiteSpace=wrap;html=1;fillColor=light-dark(#FFFFFF,#FFFFFF);fontColor=light-dark(#000000,#000000);" vertex="1" parent="L24kRfQmKUiIfzlVppwo-178">
          <mxGeometry x="160" width="40" height="40" as="geometry" />
        </mxCell>
        <mxCell id="L24kRfQmKUiIfzlVppwo-184" value="56" style="rounded=0;whiteSpace=wrap;html=1;fillColor=light-dark(#FFFFFF,#000000);" vertex="1" parent="L24kRfQmKUiIfzlVppwo-178">
          <mxGeometry x="200" width="40" height="40" as="geometry" />
        </mxCell>
        <mxCell id="L24kRfQmKUiIfzlVppwo-185" value="37" style="rounded=0;whiteSpace=wrap;html=1;fillColor=light-dark(#FFFFFF,#FFFFFF);fontColor=light-dark(#000000,#000000);" vertex="1" parent="L24kRfQmKUiIfzlVppwo-178">
          <mxGeometry x="240" width="40" height="40" as="geometry" />
        </mxCell>
        <mxCell id="L24kRfQmKUiIfzlVppwo-186" value="58" style="rounded=0;whiteSpace=wrap;html=1;fillColor=light-dark(#FFFFFF,#000000);" vertex="1" parent="L24kRfQmKUiIfzlVppwo-178">
          <mxGeometry x="280" width="40" height="40" as="geometry" />
        </mxCell>
        <mxCell id="L24kRfQmKUiIfzlVppwo-167" value="" style="group" vertex="1" connectable="0" parent="L24kRfQmKUiIfzlVppwo-228">
          <mxGeometry y="240" width="320" height="80" as="geometry" />
        </mxCell>
        <mxCell id="L24kRfQmKUiIfzlVppwo-1" value="2" style="group" vertex="1" connectable="0" parent="L24kRfQmKUiIfzlVppwo-167">
          <mxGeometry y="40" width="320" height="40" as="geometry" />
        </mxCell>
        <mxCell id="KXvYGAu8oC2Dhh4Rmt_D-1" value="21" style="rounded=0;whiteSpace=wrap;html=1;" parent="L24kRfQmKUiIfzlVppwo-1" vertex="1">
          <mxGeometry width="40" height="40" as="geometry" />
        </mxCell>
        <mxCell id="KXvYGAu8oC2Dhh4Rmt_D-2" value="&lt;span style=&quot;color: light-dark(rgb(0, 0, 0), rgb(0, 0, 0));&quot;&gt;22&lt;/span&gt;" style="rounded=0;whiteSpace=wrap;html=1;fillColor=light-dark(#FFFFFF,#FFFFFF);" parent="L24kRfQmKUiIfzlVppwo-1" vertex="1">
          <mxGeometry x="40" width="40" height="40" as="geometry" />
        </mxCell>
        <mxCell id="KXvYGAu8oC2Dhh4Rmt_D-3" value="23" style="rounded=0;whiteSpace=wrap;html=1;" parent="L24kRfQmKUiIfzlVppwo-1" vertex="1">
          <mxGeometry x="80" width="40" height="40" as="geometry" />
        </mxCell>
        <mxCell id="KXvYGAu8oC2Dhh4Rmt_D-4" value="&lt;span style=&quot;color: light-dark(rgb(0, 0, 0), rgb(0, 0, 0));&quot;&gt;24&lt;/span&gt;" style="rounded=0;whiteSpace=wrap;html=1;fillColor=light-dark(#FFFFFF,#FFFFFF);" parent="L24kRfQmKUiIfzlVppwo-1" vertex="1">
          <mxGeometry x="120" width="40" height="40" as="geometry" />
        </mxCell>
        <mxCell id="KXvYGAu8oC2Dhh4Rmt_D-5" value="25" style="rounded=0;whiteSpace=wrap;html=1;" parent="L24kRfQmKUiIfzlVppwo-1" vertex="1">
          <mxGeometry x="160" width="40" height="40" as="geometry" />
        </mxCell>
        <mxCell id="KXvYGAu8oC2Dhh4Rmt_D-6" value="&lt;span style=&quot;color: light-dark(rgb(0, 0, 0), rgb(0, 0, 0));&quot;&gt;26&lt;/span&gt;" style="rounded=0;whiteSpace=wrap;html=1;fillColor=light-dark(#FFFFFF,#FFFFFF);" parent="L24kRfQmKUiIfzlVppwo-1" vertex="1">
          <mxGeometry x="200" width="40" height="40" as="geometry" />
        </mxCell>
        <mxCell id="KXvYGAu8oC2Dhh4Rmt_D-7" value="27" style="rounded=0;whiteSpace=wrap;html=1;" parent="L24kRfQmKUiIfzlVppwo-1" vertex="1">
          <mxGeometry x="240" width="40" height="40" as="geometry" />
        </mxCell>
        <mxCell id="KXvYGAu8oC2Dhh4Rmt_D-8" value="&lt;span style=&quot;color: light-dark(rgb(0, 0, 0), rgb(0, 0, 0));&quot;&gt;28&lt;/span&gt;" style="rounded=0;whiteSpace=wrap;html=1;fillColor=light-dark(#FFFFFF,#FFFFFF);" parent="L24kRfQmKUiIfzlVppwo-1" vertex="1">
          <mxGeometry x="280" width="40" height="40" as="geometry" />
        </mxCell>
        <mxCell id="L24kRfQmKUiIfzlVppwo-39" value="" style="group" vertex="1" connectable="0" parent="L24kRfQmKUiIfzlVppwo-167">
          <mxGeometry width="320" height="40" as="geometry" />
        </mxCell>
        <mxCell id="L24kRfQmKUiIfzlVppwo-31" value="31" style="rounded=0;whiteSpace=wrap;html=1;movable=1;resizable=1;rotatable=1;deletable=1;editable=1;locked=0;connectable=1;fillColor=light-dark(#FFFFFF,#FFFFFF);fontColor=light-dark(#000000,#000000);" vertex="1" parent="L24kRfQmKUiIfzlVppwo-39">
          <mxGeometry width="40" height="40" as="geometry" />
        </mxCell>
        <mxCell id="L24kRfQmKUiIfzlVppwo-32" value="32" style="rounded=0;whiteSpace=wrap;html=1;fillColor=light-dark(#FFFFFF,#000000);" vertex="1" parent="L24kRfQmKUiIfzlVppwo-39">
          <mxGeometry x="40" width="40" height="40" as="geometry" />
        </mxCell>
        <mxCell id="L24kRfQmKUiIfzlVppwo-33" value="33" style="rounded=0;whiteSpace=wrap;html=1;fillColor=light-dark(#FFFFFF,#FFFFFF);fontColor=light-dark(#000000,#000000);" vertex="1" parent="L24kRfQmKUiIfzlVppwo-39">
          <mxGeometry x="80" width="40" height="40" as="geometry" />
        </mxCell>
        <mxCell id="L24kRfQmKUiIfzlVppwo-34" value="34" style="rounded=0;whiteSpace=wrap;html=1;fillColor=light-dark(#FFFFFF,#000000);" vertex="1" parent="L24kRfQmKUiIfzlVppwo-39">
          <mxGeometry x="120" width="40" height="40" as="geometry" />
        </mxCell>
        <mxCell id="L24kRfQmKUiIfzlVppwo-35" value="35" style="rounded=0;whiteSpace=wrap;html=1;fillColor=light-dark(#FFFFFF,#FFFFFF);fontColor=light-dark(#000000,#000000);" vertex="1" parent="L24kRfQmKUiIfzlVppwo-39">
          <mxGeometry x="160" width="40" height="40" as="geometry" />
        </mxCell>
        <mxCell id="L24kRfQmKUiIfzlVppwo-36" value="36" style="rounded=0;whiteSpace=wrap;html=1;fillColor=light-dark(#FFFFFF,#000000);" vertex="1" parent="L24kRfQmKUiIfzlVppwo-39">
          <mxGeometry x="200" width="40" height="40" as="geometry" />
        </mxCell>
        <mxCell id="L24kRfQmKUiIfzlVppwo-37" value="37" style="rounded=0;whiteSpace=wrap;html=1;fillColor=light-dark(#FFFFFF,#FFFFFF);fontColor=light-dark(#000000,#000000);" vertex="1" parent="L24kRfQmKUiIfzlVppwo-39">
          <mxGeometry x="240" width="40" height="40" as="geometry" />
        </mxCell>
        <mxCell id="L24kRfQmKUiIfzlVppwo-38" value="38" style="rounded=0;whiteSpace=wrap;html=1;fillColor=light-dark(#FFFFFF,#000000);" vertex="1" parent="L24kRfQmKUiIfzlVppwo-39">
          <mxGeometry x="280" width="40" height="40" as="geometry" />
        </mxCell>
        <mxCell id="L24kRfQmKUiIfzlVppwo-229" value="" style="group" vertex="1" connectable="0" parent="1">
          <mxGeometry x="1160" width="320" height="320" as="geometry" />
        </mxCell>
        <mxCell id="L24kRfQmKUiIfzlVppwo-230" value="" style="group" vertex="1" connectable="0" parent="L24kRfQmKUiIfzlVppwo-229">
          <mxGeometry width="320" height="80" as="geometry" />
        </mxCell>
        <mxCell id="L24kRfQmKUiIfzlVppwo-231" value="" style="rounded=0;whiteSpace=wrap;html=1;movable=1;resizable=1;rotatable=1;deletable=1;editable=1;locked=0;connectable=1;fillColor=light-dark(#FFFFFF,#FFFFFF);" vertex="1" parent="L24kRfQmKUiIfzlVppwo-230">
          <mxGeometry width="40" height="40" as="geometry" />
        </mxCell>
        <mxCell id="L24kRfQmKUiIfzlVppwo-232" value="92" style="rounded=0;whiteSpace=wrap;html=1;fillColor=light-dark(#FFFFFF,#000000);" vertex="1" parent="L24kRfQmKUiIfzlVppwo-230">
          <mxGeometry x="40" width="40" height="40" as="geometry" />
        </mxCell>
        <mxCell id="L24kRfQmKUiIfzlVppwo-233" value="" style="rounded=0;whiteSpace=wrap;html=1;fillColor=light-dark(#FFFFFF,#FFFFFF);" vertex="1" parent="L24kRfQmKUiIfzlVppwo-230">
          <mxGeometry x="80" width="40" height="40" as="geometry" />
        </mxCell>
        <mxCell id="L24kRfQmKUiIfzlVppwo-234" value="94" style="rounded=0;whiteSpace=wrap;html=1;fillColor=light-dark(#FFFFFF,#000000);" vertex="1" parent="L24kRfQmKUiIfzlVppwo-230">
          <mxGeometry x="120" width="40" height="40" as="geometry" />
        </mxCell>
        <mxCell id="L24kRfQmKUiIfzlVppwo-235" value="" style="rounded=0;whiteSpace=wrap;html=1;fillColor=light-dark(#FFFFFF,#FFFFFF);" vertex="1" parent="L24kRfQmKUiIfzlVppwo-230">
          <mxGeometry x="160" width="40" height="40" as="geometry" />
        </mxCell>
        <mxCell id="L24kRfQmKUiIfzlVppwo-236" value="96" style="rounded=0;whiteSpace=wrap;html=1;fillColor=light-dark(#FFFFFF,#000000);" vertex="1" parent="L24kRfQmKUiIfzlVppwo-230">
          <mxGeometry x="200" width="40" height="40" as="geometry" />
        </mxCell>
        <mxCell id="L24kRfQmKUiIfzlVppwo-237" value="" style="rounded=0;whiteSpace=wrap;html=1;fillColor=light-dark(#FFFFFF,#FFFFFF);" vertex="1" parent="L24kRfQmKUiIfzlVppwo-230">
          <mxGeometry x="240" width="40" height="40" as="geometry" />
        </mxCell>
        <mxCell id="L24kRfQmKUiIfzlVppwo-238" value="98" style="rounded=0;whiteSpace=wrap;html=1;fillColor=light-dark(#FFFFFF,#000000);" vertex="1" parent="L24kRfQmKUiIfzlVppwo-230">
          <mxGeometry x="280" width="40" height="40" as="geometry" />
        </mxCell>
        <mxCell id="L24kRfQmKUiIfzlVppwo-239" value="" style="group" vertex="1" connectable="0" parent="L24kRfQmKUiIfzlVppwo-230">
          <mxGeometry width="320" height="80" as="geometry" />
        </mxCell>
        <mxCell id="L24kRfQmKUiIfzlVppwo-240" value="2" style="group" vertex="1" connectable="0" parent="L24kRfQmKUiIfzlVppwo-239">
          <mxGeometry y="40" width="320" height="40" as="geometry" />
        </mxCell>
        <mxCell id="L24kRfQmKUiIfzlVppwo-241" value="81" style="rounded=0;whiteSpace=wrap;html=1;" vertex="1" parent="L24kRfQmKUiIfzlVppwo-240">
          <mxGeometry width="40" height="40" as="geometry" />
        </mxCell>
        <mxCell id="L24kRfQmKUiIfzlVppwo-242" value="&lt;span style=&quot;color: light-dark(rgb(0, 0, 0), rgb(0, 0, 0));&quot;&gt;82&lt;/span&gt;" style="rounded=0;whiteSpace=wrap;html=1;fillColor=light-dark(#FFFFFF,#FFFFFF);" vertex="1" parent="L24kRfQmKUiIfzlVppwo-240">
          <mxGeometry x="40" width="40" height="40" as="geometry" />
        </mxCell>
        <mxCell id="L24kRfQmKUiIfzlVppwo-243" value="23" style="rounded=0;whiteSpace=wrap;html=1;" vertex="1" parent="L24kRfQmKUiIfzlVppwo-240">
          <mxGeometry x="80" width="40" height="40" as="geometry" />
        </mxCell>
        <mxCell id="L24kRfQmKUiIfzlVppwo-244" value="&lt;span style=&quot;color: light-dark(rgb(0, 0, 0), rgb(0, 0, 0));&quot;&gt;24&lt;/span&gt;" style="rounded=0;whiteSpace=wrap;html=1;fillColor=light-dark(#FFFFFF,#FFFFFF);" vertex="1" parent="L24kRfQmKUiIfzlVppwo-240">
          <mxGeometry x="120" width="40" height="40" as="geometry" />
        </mxCell>
        <mxCell id="L24kRfQmKUiIfzlVppwo-245" value="25" style="rounded=0;whiteSpace=wrap;html=1;" vertex="1" parent="L24kRfQmKUiIfzlVppwo-240">
          <mxGeometry x="160" width="40" height="40" as="geometry" />
        </mxCell>
        <mxCell id="L24kRfQmKUiIfzlVppwo-246" value="&lt;span style=&quot;color: light-dark(rgb(0, 0, 0), rgb(0, 0, 0));&quot;&gt;26&lt;/span&gt;" style="rounded=0;whiteSpace=wrap;html=1;fillColor=light-dark(#FFFFFF,#FFFFFF);" vertex="1" parent="L24kRfQmKUiIfzlVppwo-240">
          <mxGeometry x="200" width="40" height="40" as="geometry" />
        </mxCell>
        <mxCell id="L24kRfQmKUiIfzlVppwo-247" value="27" style="rounded=0;whiteSpace=wrap;html=1;" vertex="1" parent="L24kRfQmKUiIfzlVppwo-240">
          <mxGeometry x="240" width="40" height="40" as="geometry" />
        </mxCell>
        <mxCell id="L24kRfQmKUiIfzlVppwo-248" value="&lt;span style=&quot;color: light-dark(rgb(0, 0, 0), rgb(0, 0, 0));&quot;&gt;28&lt;/span&gt;" style="rounded=0;whiteSpace=wrap;html=1;fillColor=light-dark(#FFFFFF,#FFFFFF);" vertex="1" parent="L24kRfQmKUiIfzlVppwo-240">
          <mxGeometry x="280" width="40" height="40" as="geometry" />
        </mxCell>
        <mxCell id="L24kRfQmKUiIfzlVppwo-249" value="" style="group" vertex="1" connectable="0" parent="L24kRfQmKUiIfzlVppwo-239">
          <mxGeometry width="320" height="40" as="geometry" />
        </mxCell>
        <mxCell id="L24kRfQmKUiIfzlVppwo-250" value="91" style="rounded=0;whiteSpace=wrap;html=1;movable=1;resizable=1;rotatable=1;deletable=1;editable=1;locked=0;connectable=1;fillColor=light-dark(#FFFFFF,#FFFFFF);fontColor=light-dark(#000000,#000000);" vertex="1" parent="L24kRfQmKUiIfzlVppwo-249">
          <mxGeometry width="40" height="40" as="geometry" />
        </mxCell>
        <mxCell id="L24kRfQmKUiIfzlVppwo-251" value="92" style="rounded=0;whiteSpace=wrap;html=1;fillColor=light-dark(#FFFFFF,#000000);" vertex="1" parent="L24kRfQmKUiIfzlVppwo-249">
          <mxGeometry x="40" width="40" height="40" as="geometry" />
        </mxCell>
        <mxCell id="L24kRfQmKUiIfzlVppwo-252" value="33" style="rounded=0;whiteSpace=wrap;html=1;fillColor=light-dark(#FFFFFF,#FFFFFF);fontColor=light-dark(#000000,#000000);" vertex="1" parent="L24kRfQmKUiIfzlVppwo-249">
          <mxGeometry x="80" width="40" height="40" as="geometry" />
        </mxCell>
        <mxCell id="L24kRfQmKUiIfzlVppwo-253" value="34" style="rounded=0;whiteSpace=wrap;html=1;fillColor=light-dark(#FFFFFF,#000000);" vertex="1" parent="L24kRfQmKUiIfzlVppwo-249">
          <mxGeometry x="120" width="40" height="40" as="geometry" />
        </mxCell>
        <mxCell id="L24kRfQmKUiIfzlVppwo-254" value="35" style="rounded=0;whiteSpace=wrap;html=1;fillColor=light-dark(#FFFFFF,#FFFFFF);fontColor=light-dark(#000000,#000000);" vertex="1" parent="L24kRfQmKUiIfzlVppwo-249">
          <mxGeometry x="160" width="40" height="40" as="geometry" />
        </mxCell>
        <mxCell id="L24kRfQmKUiIfzlVppwo-255" value="36" style="rounded=0;whiteSpace=wrap;html=1;fillColor=light-dark(#FFFFFF,#000000);" vertex="1" parent="L24kRfQmKUiIfzlVppwo-249">
          <mxGeometry x="200" width="40" height="40" as="geometry" />
        </mxCell>
        <mxCell id="L24kRfQmKUiIfzlVppwo-256" value="37" style="rounded=0;whiteSpace=wrap;html=1;fillColor=light-dark(#FFFFFF,#FFFFFF);fontColor=light-dark(#000000,#000000);" vertex="1" parent="L24kRfQmKUiIfzlVppwo-249">
          <mxGeometry x="240" width="40" height="40" as="geometry" />
        </mxCell>
        <mxCell id="L24kRfQmKUiIfzlVppwo-257" value="38" style="rounded=0;whiteSpace=wrap;html=1;fillColor=light-dark(#FFFFFF,#000000);" vertex="1" parent="L24kRfQmKUiIfzlVppwo-249">
          <mxGeometry x="280" width="40" height="40" as="geometry" />
        </mxCell>
        <mxCell id="L24kRfQmKUiIfzlVppwo-258" value="" style="group" vertex="1" connectable="0" parent="L24kRfQmKUiIfzlVppwo-229">
          <mxGeometry y="80" width="320" height="80" as="geometry" />
        </mxCell>
        <mxCell id="L24kRfQmKUiIfzlVppwo-259" value="" style="rounded=0;whiteSpace=wrap;html=1;movable=1;resizable=1;rotatable=1;deletable=1;editable=1;locked=0;connectable=1;fillColor=light-dark(#FFFFFF,#FFFFFF);" vertex="1" parent="L24kRfQmKUiIfzlVppwo-258">
          <mxGeometry width="40" height="40" as="geometry" />
        </mxCell>
        <mxCell id="L24kRfQmKUiIfzlVppwo-260" value="72" style="rounded=0;whiteSpace=wrap;html=1;fillColor=light-dark(#FFFFFF,#000000);" vertex="1" parent="L24kRfQmKUiIfzlVppwo-258">
          <mxGeometry x="40" width="40" height="40" as="geometry" />
        </mxCell>
        <mxCell id="L24kRfQmKUiIfzlVppwo-261" value="" style="rounded=0;whiteSpace=wrap;html=1;fillColor=light-dark(#FFFFFF,#FFFFFF);" vertex="1" parent="L24kRfQmKUiIfzlVppwo-258">
          <mxGeometry x="80" width="40" height="40" as="geometry" />
        </mxCell>
        <mxCell id="L24kRfQmKUiIfzlVppwo-262" value="74" style="rounded=0;whiteSpace=wrap;html=1;fillColor=light-dark(#FFFFFF,#000000);" vertex="1" parent="L24kRfQmKUiIfzlVppwo-258">
          <mxGeometry x="120" width="40" height="40" as="geometry" />
        </mxCell>
        <mxCell id="L24kRfQmKUiIfzlVppwo-263" value="" style="rounded=0;whiteSpace=wrap;html=1;fillColor=light-dark(#FFFFFF,#FFFFFF);" vertex="1" parent="L24kRfQmKUiIfzlVppwo-258">
          <mxGeometry x="160" width="40" height="40" as="geometry" />
        </mxCell>
        <mxCell id="L24kRfQmKUiIfzlVppwo-264" value="76" style="rounded=0;whiteSpace=wrap;html=1;fillColor=light-dark(#FFFFFF,#000000);" vertex="1" parent="L24kRfQmKUiIfzlVppwo-258">
          <mxGeometry x="200" width="40" height="40" as="geometry" />
        </mxCell>
        <mxCell id="L24kRfQmKUiIfzlVppwo-265" value="" style="rounded=0;whiteSpace=wrap;html=1;fillColor=light-dark(#FFFFFF,#FFFFFF);" vertex="1" parent="L24kRfQmKUiIfzlVppwo-258">
          <mxGeometry x="240" width="40" height="40" as="geometry" />
        </mxCell>
        <mxCell id="L24kRfQmKUiIfzlVppwo-266" value="78" style="rounded=0;whiteSpace=wrap;html=1;fillColor=light-dark(#FFFFFF,#000000);" vertex="1" parent="L24kRfQmKUiIfzlVppwo-258">
          <mxGeometry x="280" width="40" height="40" as="geometry" />
        </mxCell>
        <mxCell id="L24kRfQmKUiIfzlVppwo-267" value="" style="group" vertex="1" connectable="0" parent="L24kRfQmKUiIfzlVppwo-258">
          <mxGeometry width="320" height="80" as="geometry" />
        </mxCell>
        <mxCell id="L24kRfQmKUiIfzlVppwo-268" value="2" style="group" vertex="1" connectable="0" parent="L24kRfQmKUiIfzlVppwo-267">
          <mxGeometry y="40" width="320" height="40" as="geometry" />
        </mxCell>
        <mxCell id="L24kRfQmKUiIfzlVppwo-269" value="21" style="rounded=0;whiteSpace=wrap;html=1;" vertex="1" parent="L24kRfQmKUiIfzlVppwo-268">
          <mxGeometry width="40" height="40" as="geometry" />
        </mxCell>
        <mxCell id="L24kRfQmKUiIfzlVppwo-270" value="&lt;span style=&quot;color: light-dark(rgb(0, 0, 0), rgb(0, 0, 0));&quot;&gt;22&lt;/span&gt;" style="rounded=0;whiteSpace=wrap;html=1;fillColor=light-dark(#FFFFFF,#FFFFFF);" vertex="1" parent="L24kRfQmKUiIfzlVppwo-268">
          <mxGeometry x="40" width="40" height="40" as="geometry" />
        </mxCell>
        <mxCell id="L24kRfQmKUiIfzlVppwo-271" value="23" style="rounded=0;whiteSpace=wrap;html=1;" vertex="1" parent="L24kRfQmKUiIfzlVppwo-268">
          <mxGeometry x="80" width="40" height="40" as="geometry" />
        </mxCell>
        <mxCell id="L24kRfQmKUiIfzlVppwo-272" value="&lt;span style=&quot;color: light-dark(rgb(0, 0, 0), rgb(0, 0, 0));&quot;&gt;24&lt;/span&gt;" style="rounded=0;whiteSpace=wrap;html=1;fillColor=light-dark(#FFFFFF,#FFFFFF);" vertex="1" parent="L24kRfQmKUiIfzlVppwo-268">
          <mxGeometry x="120" width="40" height="40" as="geometry" />
        </mxCell>
        <mxCell id="L24kRfQmKUiIfzlVppwo-273" value="25" style="rounded=0;whiteSpace=wrap;html=1;" vertex="1" parent="L24kRfQmKUiIfzlVppwo-268">
          <mxGeometry x="160" width="40" height="40" as="geometry" />
        </mxCell>
        <mxCell id="L24kRfQmKUiIfzlVppwo-274" value="&lt;span style=&quot;color: light-dark(rgb(0, 0, 0), rgb(0, 0, 0));&quot;&gt;26&lt;/span&gt;" style="rounded=0;whiteSpace=wrap;html=1;fillColor=light-dark(#FFFFFF,#FFFFFF);" vertex="1" parent="L24kRfQmKUiIfzlVppwo-268">
          <mxGeometry x="200" width="40" height="40" as="geometry" />
        </mxCell>
        <mxCell id="L24kRfQmKUiIfzlVppwo-275" value="27" style="rounded=0;whiteSpace=wrap;html=1;" vertex="1" parent="L24kRfQmKUiIfzlVppwo-268">
          <mxGeometry x="240" width="40" height="40" as="geometry" />
        </mxCell>
        <mxCell id="L24kRfQmKUiIfzlVppwo-276" value="&lt;span style=&quot;color: light-dark(rgb(0, 0, 0), rgb(0, 0, 0));&quot;&gt;28&lt;/span&gt;" style="rounded=0;whiteSpace=wrap;html=1;fillColor=light-dark(#FFFFFF,#FFFFFF);" vertex="1" parent="L24kRfQmKUiIfzlVppwo-268">
          <mxGeometry x="280" width="40" height="40" as="geometry" />
        </mxCell>
        <mxCell id="L24kRfQmKUiIfzlVppwo-277" value="" style="group" vertex="1" connectable="0" parent="L24kRfQmKUiIfzlVppwo-267">
          <mxGeometry width="320" height="40" as="geometry" />
        </mxCell>
        <mxCell id="L24kRfQmKUiIfzlVppwo-278" value="71" style="rounded=0;whiteSpace=wrap;html=1;movable=1;resizable=1;rotatable=1;deletable=1;editable=1;locked=0;connectable=1;fillColor=light-dark(#FFFFFF,#FFFFFF);fontColor=light-dark(#000000,#000000);" vertex="1" parent="L24kRfQmKUiIfzlVppwo-277">
          <mxGeometry width="40" height="40" as="geometry" />
        </mxCell>
        <mxCell id="L24kRfQmKUiIfzlVppwo-279" value="72" style="rounded=0;whiteSpace=wrap;html=1;fillColor=light-dark(#FFFFFF,#000000);" vertex="1" parent="L24kRfQmKUiIfzlVppwo-277">
          <mxGeometry x="40" width="40" height="40" as="geometry" />
        </mxCell>
        <mxCell id="L24kRfQmKUiIfzlVppwo-280" value="33" style="rounded=0;whiteSpace=wrap;html=1;fillColor=light-dark(#FFFFFF,#FFFFFF);fontColor=light-dark(#000000,#000000);" vertex="1" parent="L24kRfQmKUiIfzlVppwo-277">
          <mxGeometry x="80" width="40" height="40" as="geometry" />
        </mxCell>
        <mxCell id="L24kRfQmKUiIfzlVppwo-281" value="34" style="rounded=0;whiteSpace=wrap;html=1;fillColor=light-dark(#FFFFFF,#000000);" vertex="1" parent="L24kRfQmKUiIfzlVppwo-277">
          <mxGeometry x="120" width="40" height="40" as="geometry" />
        </mxCell>
        <mxCell id="L24kRfQmKUiIfzlVppwo-282" value="35" style="rounded=0;whiteSpace=wrap;html=1;fillColor=light-dark(#FFFFFF,#FFFFFF);fontColor=light-dark(#000000,#000000);" vertex="1" parent="L24kRfQmKUiIfzlVppwo-277">
          <mxGeometry x="160" width="40" height="40" as="geometry" />
        </mxCell>
        <mxCell id="L24kRfQmKUiIfzlVppwo-283" value="36" style="rounded=0;whiteSpace=wrap;html=1;fillColor=light-dark(#FFFFFF,#000000);" vertex="1" parent="L24kRfQmKUiIfzlVppwo-277">
          <mxGeometry x="200" width="40" height="40" as="geometry" />
        </mxCell>
        <mxCell id="L24kRfQmKUiIfzlVppwo-284" value="37" style="rounded=0;whiteSpace=wrap;html=1;fillColor=light-dark(#FFFFFF,#FFFFFF);fontColor=light-dark(#000000,#000000);" vertex="1" parent="L24kRfQmKUiIfzlVppwo-277">
          <mxGeometry x="240" width="40" height="40" as="geometry" />
        </mxCell>
        <mxCell id="L24kRfQmKUiIfzlVppwo-285" value="38" style="rounded=0;whiteSpace=wrap;html=1;fillColor=light-dark(#FFFFFF,#000000);" vertex="1" parent="L24kRfQmKUiIfzlVppwo-277">
          <mxGeometry x="280" width="40" height="40" as="geometry" />
        </mxCell>
        <mxCell id="L24kRfQmKUiIfzlVppwo-286" value="" style="group" vertex="1" connectable="0" parent="L24kRfQmKUiIfzlVppwo-229">
          <mxGeometry y="160" width="320" height="80" as="geometry" />
        </mxCell>
        <mxCell id="L24kRfQmKUiIfzlVppwo-287" value="" style="rounded=0;whiteSpace=wrap;html=1;movable=1;resizable=1;rotatable=1;deletable=1;editable=1;locked=0;connectable=1;fillColor=light-dark(#FFFFFF,#FFFFFF);" vertex="1" parent="L24kRfQmKUiIfzlVppwo-286">
          <mxGeometry width="40" height="40" as="geometry" />
        </mxCell>
        <mxCell id="L24kRfQmKUiIfzlVppwo-288" value="52" style="rounded=0;whiteSpace=wrap;html=1;fillColor=light-dark(#FFFFFF,#000000);" vertex="1" parent="L24kRfQmKUiIfzlVppwo-286">
          <mxGeometry x="40" width="40" height="40" as="geometry" />
        </mxCell>
        <mxCell id="L24kRfQmKUiIfzlVppwo-289" value="" style="rounded=0;whiteSpace=wrap;html=1;fillColor=light-dark(#FFFFFF,#FFFFFF);" vertex="1" parent="L24kRfQmKUiIfzlVppwo-286">
          <mxGeometry x="80" width="40" height="40" as="geometry" />
        </mxCell>
        <mxCell id="L24kRfQmKUiIfzlVppwo-290" value="54" style="rounded=0;whiteSpace=wrap;html=1;fillColor=light-dark(#FFFFFF,#000000);" vertex="1" parent="L24kRfQmKUiIfzlVppwo-286">
          <mxGeometry x="120" width="40" height="40" as="geometry" />
        </mxCell>
        <mxCell id="L24kRfQmKUiIfzlVppwo-291" value="" style="rounded=0;whiteSpace=wrap;html=1;fillColor=light-dark(#FFFFFF,#FFFFFF);" vertex="1" parent="L24kRfQmKUiIfzlVppwo-286">
          <mxGeometry x="160" width="40" height="40" as="geometry" />
        </mxCell>
        <mxCell id="L24kRfQmKUiIfzlVppwo-292" value="56" style="rounded=0;whiteSpace=wrap;html=1;fillColor=light-dark(#FFFFFF,#000000);" vertex="1" parent="L24kRfQmKUiIfzlVppwo-286">
          <mxGeometry x="200" width="40" height="40" as="geometry" />
        </mxCell>
        <mxCell id="L24kRfQmKUiIfzlVppwo-293" value="" style="rounded=0;whiteSpace=wrap;html=1;fillColor=light-dark(#FFFFFF,#FFFFFF);" vertex="1" parent="L24kRfQmKUiIfzlVppwo-286">
          <mxGeometry x="240" width="40" height="40" as="geometry" />
        </mxCell>
        <mxCell id="L24kRfQmKUiIfzlVppwo-294" value="58" style="rounded=0;whiteSpace=wrap;html=1;fillColor=light-dark(#FFFFFF,#000000);" vertex="1" parent="L24kRfQmKUiIfzlVppwo-286">
          <mxGeometry x="280" width="40" height="40" as="geometry" />
        </mxCell>
        <mxCell id="L24kRfQmKUiIfzlVppwo-295" value="" style="group" vertex="1" connectable="0" parent="L24kRfQmKUiIfzlVppwo-286">
          <mxGeometry width="320" height="80" as="geometry" />
        </mxCell>
        <mxCell id="L24kRfQmKUiIfzlVppwo-296" value="2" style="group" vertex="1" connectable="0" parent="L24kRfQmKUiIfzlVppwo-295">
          <mxGeometry y="40" width="320" height="40" as="geometry" />
        </mxCell>
        <mxCell id="L24kRfQmKUiIfzlVppwo-297" value="41" style="rounded=0;whiteSpace=wrap;html=1;" vertex="1" parent="L24kRfQmKUiIfzlVppwo-296">
          <mxGeometry width="40" height="40" as="geometry" />
        </mxCell>
        <mxCell id="L24kRfQmKUiIfzlVppwo-298" value="&lt;span style=&quot;color: light-dark(rgb(0, 0, 0), rgb(0, 0, 0));&quot;&gt;42&lt;/span&gt;" style="rounded=0;whiteSpace=wrap;html=1;fillColor=light-dark(#FFFFFF,#FFFFFF);" vertex="1" parent="L24kRfQmKUiIfzlVppwo-296">
          <mxGeometry x="40" width="40" height="40" as="geometry" />
        </mxCell>
        <mxCell id="L24kRfQmKUiIfzlVppwo-299" value="43" style="rounded=0;whiteSpace=wrap;html=1;" vertex="1" parent="L24kRfQmKUiIfzlVppwo-296">
          <mxGeometry x="80" width="40" height="40" as="geometry" />
        </mxCell>
        <mxCell id="L24kRfQmKUiIfzlVppwo-300" value="&lt;span style=&quot;color: light-dark(rgb(0, 0, 0), rgb(0, 0, 0));&quot;&gt;24&lt;/span&gt;" style="rounded=0;whiteSpace=wrap;html=1;fillColor=light-dark(#FFFFFF,#FFFFFF);" vertex="1" parent="L24kRfQmKUiIfzlVppwo-296">
          <mxGeometry x="120" width="40" height="40" as="geometry" />
        </mxCell>
        <mxCell id="L24kRfQmKUiIfzlVppwo-301" value="25" style="rounded=0;whiteSpace=wrap;html=1;" vertex="1" parent="L24kRfQmKUiIfzlVppwo-296">
          <mxGeometry x="160" width="40" height="40" as="geometry" />
        </mxCell>
        <mxCell id="L24kRfQmKUiIfzlVppwo-302" value="&lt;span style=&quot;color: light-dark(rgb(0, 0, 0), rgb(0, 0, 0));&quot;&gt;26&lt;/span&gt;" style="rounded=0;whiteSpace=wrap;html=1;fillColor=light-dark(#FFFFFF,#FFFFFF);" vertex="1" parent="L24kRfQmKUiIfzlVppwo-296">
          <mxGeometry x="200" width="40" height="40" as="geometry" />
        </mxCell>
        <mxCell id="L24kRfQmKUiIfzlVppwo-303" value="27" style="rounded=0;whiteSpace=wrap;html=1;" vertex="1" parent="L24kRfQmKUiIfzlVppwo-296">
          <mxGeometry x="240" width="40" height="40" as="geometry" />
        </mxCell>
        <mxCell id="L24kRfQmKUiIfzlVppwo-304" value="&lt;span style=&quot;color: light-dark(rgb(0, 0, 0), rgb(0, 0, 0));&quot;&gt;28&lt;/span&gt;" style="rounded=0;whiteSpace=wrap;html=1;fillColor=light-dark(#FFFFFF,#FFFFFF);" vertex="1" parent="L24kRfQmKUiIfzlVppwo-296">
          <mxGeometry x="280" width="40" height="40" as="geometry" />
        </mxCell>
        <mxCell id="L24kRfQmKUiIfzlVppwo-305" value="" style="group" vertex="1" connectable="0" parent="L24kRfQmKUiIfzlVppwo-295">
          <mxGeometry width="320" height="40" as="geometry" />
        </mxCell>
        <mxCell id="L24kRfQmKUiIfzlVppwo-306" value="51" style="rounded=0;whiteSpace=wrap;html=1;movable=1;resizable=1;rotatable=1;deletable=1;editable=1;locked=0;connectable=1;fillColor=light-dark(#FFFFFF,#FFFFFF);fontColor=light-dark(#000000,#000000);" vertex="1" parent="L24kRfQmKUiIfzlVppwo-305">
          <mxGeometry width="40" height="40" as="geometry" />
        </mxCell>
        <mxCell id="L24kRfQmKUiIfzlVppwo-307" value="52" style="rounded=0;whiteSpace=wrap;html=1;fillColor=light-dark(#FFFFFF,#000000);" vertex="1" parent="L24kRfQmKUiIfzlVppwo-305">
          <mxGeometry x="40" width="40" height="40" as="geometry" />
        </mxCell>
        <mxCell id="L24kRfQmKUiIfzlVppwo-308" value="33" style="rounded=0;whiteSpace=wrap;html=1;fillColor=light-dark(#FFFFFF,#FFFFFF);fontColor=light-dark(#000000,#000000);" vertex="1" parent="L24kRfQmKUiIfzlVppwo-305">
          <mxGeometry x="80" width="40" height="40" as="geometry" />
        </mxCell>
        <mxCell id="L24kRfQmKUiIfzlVppwo-309" value="34" style="rounded=0;whiteSpace=wrap;html=1;fillColor=light-dark(#FFFFFF,#000000);" vertex="1" parent="L24kRfQmKUiIfzlVppwo-305">
          <mxGeometry x="120" width="40" height="40" as="geometry" />
        </mxCell>
        <mxCell id="L24kRfQmKUiIfzlVppwo-310" value="35" style="rounded=0;whiteSpace=wrap;html=1;fillColor=light-dark(#FFFFFF,#FFFFFF);fontColor=light-dark(#000000,#000000);" vertex="1" parent="L24kRfQmKUiIfzlVppwo-305">
          <mxGeometry x="160" width="40" height="40" as="geometry" />
        </mxCell>
        <mxCell id="L24kRfQmKUiIfzlVppwo-311" value="36" style="rounded=0;whiteSpace=wrap;html=1;fillColor=light-dark(#FFFFFF,#000000);" vertex="1" parent="L24kRfQmKUiIfzlVppwo-305">
          <mxGeometry x="200" width="40" height="40" as="geometry" />
        </mxCell>
        <mxCell id="L24kRfQmKUiIfzlVppwo-312" value="37" style="rounded=0;whiteSpace=wrap;html=1;fillColor=light-dark(#FFFFFF,#FFFFFF);fontColor=light-dark(#000000,#000000);" vertex="1" parent="L24kRfQmKUiIfzlVppwo-305">
          <mxGeometry x="240" width="40" height="40" as="geometry" />
        </mxCell>
        <mxCell id="L24kRfQmKUiIfzlVppwo-313" value="38" style="rounded=0;whiteSpace=wrap;html=1;fillColor=light-dark(#FFFFFF,#000000);" vertex="1" parent="L24kRfQmKUiIfzlVppwo-305">
          <mxGeometry x="280" width="40" height="40" as="geometry" />
        </mxCell>
        <mxCell id="L24kRfQmKUiIfzlVppwo-314" value="" style="group" vertex="1" connectable="0" parent="L24kRfQmKUiIfzlVppwo-229">
          <mxGeometry y="240" width="320" height="80" as="geometry" />
        </mxCell>
        <mxCell id="L24kRfQmKUiIfzlVppwo-315" value="2" style="group" vertex="1" connectable="0" parent="L24kRfQmKUiIfzlVppwo-314">
          <mxGeometry y="40" width="320" height="40" as="geometry" />
        </mxCell>
        <mxCell id="L24kRfQmKUiIfzlVppwo-316" value="21" style="rounded=0;whiteSpace=wrap;html=1;" vertex="1" parent="L24kRfQmKUiIfzlVppwo-315">
          <mxGeometry width="40" height="40" as="geometry" />
        </mxCell>
        <mxCell id="L24kRfQmKUiIfzlVppwo-317" value="&lt;span style=&quot;color: light-dark(rgb(0, 0, 0), rgb(0, 0, 0));&quot;&gt;22&lt;/span&gt;" style="rounded=0;whiteSpace=wrap;html=1;fillColor=light-dark(#FFFFFF,#FFFFFF);" vertex="1" parent="L24kRfQmKUiIfzlVppwo-315">
          <mxGeometry x="40" width="40" height="40" as="geometry" />
        </mxCell>
        <mxCell id="L24kRfQmKUiIfzlVppwo-318" value="23" style="rounded=0;whiteSpace=wrap;html=1;" vertex="1" parent="L24kRfQmKUiIfzlVppwo-315">
          <mxGeometry x="80" width="40" height="40" as="geometry" />
        </mxCell>
        <mxCell id="L24kRfQmKUiIfzlVppwo-319" value="&lt;span style=&quot;color: light-dark(rgb(0, 0, 0), rgb(0, 0, 0));&quot;&gt;24&lt;/span&gt;" style="rounded=0;whiteSpace=wrap;html=1;fillColor=light-dark(#FFFFFF,#FFFFFF);" vertex="1" parent="L24kRfQmKUiIfzlVppwo-315">
          <mxGeometry x="120" width="40" height="40" as="geometry" />
        </mxCell>
        <mxCell id="L24kRfQmKUiIfzlVppwo-320" value="25" style="rounded=0;whiteSpace=wrap;html=1;" vertex="1" parent="L24kRfQmKUiIfzlVppwo-315">
          <mxGeometry x="160" width="40" height="40" as="geometry" />
        </mxCell>
        <mxCell id="L24kRfQmKUiIfzlVppwo-321" value="&lt;span style=&quot;color: light-dark(rgb(0, 0, 0), rgb(0, 0, 0));&quot;&gt;26&lt;/span&gt;" style="rounded=0;whiteSpace=wrap;html=1;fillColor=light-dark(#FFFFFF,#FFFFFF);" vertex="1" parent="L24kRfQmKUiIfzlVppwo-315">
          <mxGeometry x="200" width="40" height="40" as="geometry" />
        </mxCell>
        <mxCell id="L24kRfQmKUiIfzlVppwo-322" value="27" style="rounded=0;whiteSpace=wrap;html=1;" vertex="1" parent="L24kRfQmKUiIfzlVppwo-315">
          <mxGeometry x="240" width="40" height="40" as="geometry" />
        </mxCell>
        <mxCell id="L24kRfQmKUiIfzlVppwo-323" value="&lt;span style=&quot;color: light-dark(rgb(0, 0, 0), rgb(0, 0, 0));&quot;&gt;28&lt;/span&gt;" style="rounded=0;whiteSpace=wrap;html=1;fillColor=light-dark(#FFFFFF,#FFFFFF);" vertex="1" parent="L24kRfQmKUiIfzlVppwo-315">
          <mxGeometry x="280" width="40" height="40" as="geometry" />
        </mxCell>
        <mxCell id="L24kRfQmKUiIfzlVppwo-324" value="" style="group" vertex="1" connectable="0" parent="L24kRfQmKUiIfzlVppwo-314">
          <mxGeometry width="320" height="40" as="geometry" />
        </mxCell>
        <mxCell id="L24kRfQmKUiIfzlVppwo-325" value="31" style="rounded=0;whiteSpace=wrap;html=1;movable=1;resizable=1;rotatable=1;deletable=1;editable=1;locked=0;connectable=1;fillColor=light-dark(#FFFFFF,#FFFFFF);fontColor=light-dark(#000000,#000000);" vertex="1" parent="L24kRfQmKUiIfzlVppwo-324">
          <mxGeometry width="40" height="40" as="geometry" />
        </mxCell>
        <mxCell id="L24kRfQmKUiIfzlVppwo-326" value="32" style="rounded=0;whiteSpace=wrap;html=1;fillColor=light-dark(#FFFFFF,#000000);" vertex="1" parent="L24kRfQmKUiIfzlVppwo-324">
          <mxGeometry x="40" width="40" height="40" as="geometry" />
        </mxCell>
        <mxCell id="L24kRfQmKUiIfzlVppwo-327" value="33" style="rounded=0;whiteSpace=wrap;html=1;fillColor=light-dark(#FFFFFF,#FFFFFF);fontColor=light-dark(#000000,#000000);" vertex="1" parent="L24kRfQmKUiIfzlVppwo-324">
          <mxGeometry x="80" width="40" height="40" as="geometry" />
        </mxCell>
        <mxCell id="L24kRfQmKUiIfzlVppwo-328" value="34" style="rounded=0;whiteSpace=wrap;html=1;fillColor=light-dark(#FFFFFF,#000000);" vertex="1" parent="L24kRfQmKUiIfzlVppwo-324">
          <mxGeometry x="120" width="40" height="40" as="geometry" />
        </mxCell>
        <mxCell id="L24kRfQmKUiIfzlVppwo-329" value="35" style="rounded=0;whiteSpace=wrap;html=1;fillColor=light-dark(#FFFFFF,#FFFFFF);fontColor=light-dark(#000000,#000000);" vertex="1" parent="L24kRfQmKUiIfzlVppwo-324">
          <mxGeometry x="160" width="40" height="40" as="geometry" />
        </mxCell>
        <mxCell id="L24kRfQmKUiIfzlVppwo-330" value="36" style="rounded=0;whiteSpace=wrap;html=1;fillColor=light-dark(#FFFFFF,#000000);" vertex="1" parent="L24kRfQmKUiIfzlVppwo-324">
          <mxGeometry x="200" width="40" height="40" as="geometry" />
        </mxCell>
        <mxCell id="L24kRfQmKUiIfzlVppwo-331" value="37" style="rounded=0;whiteSpace=wrap;html=1;fillColor=light-dark(#FFFFFF,#FFFFFF);fontColor=light-dark(#000000,#000000);" vertex="1" parent="L24kRfQmKUiIfzlVppwo-324">
          <mxGeometry x="240" width="40" height="40" as="geometry" />
        </mxCell>
        <mxCell id="L24kRfQmKUiIfzlVppwo-332" value="38" style="rounded=0;whiteSpace=wrap;html=1;fillColor=light-dark(#FFFFFF,#000000);" vertex="1" parent="L24kRfQmKUiIfzlVppwo-324">
          <mxGeometry x="280" width="40" height="40" as="geometry" />
        </mxCell>
      </root>
    </mxGraphModel>
  </diagram>
</mxfile>
